<?xml version="1.0" encoding="UTF-8" standalone="no"?>
<svg
   xmlns:dc="http://purl.org/dc/elements/1.1/"
   xmlns:cc="http://creativecommons.org/ns#"
   xmlns:rdf="http://www.w3.org/1999/02/22-rdf-syntax-ns#"
   xmlns:svg="http://www.w3.org/2000/svg"
   xmlns="http://www.w3.org/2000/svg"
   xmlns:xlink="http://www.w3.org/1999/xlink"
   xmlns:sodipodi="http://sodipodi.sourceforge.net/DTD/sodipodi-0.dtd"
   xmlns:inkscape="http://www.inkscape.org/namespaces/inkscape"
   width="2e3"
   height="1220"
   version="1.1"
   viewBox="0 0 2e3 1220"
   id="svg158"
   sodipodi:docname="laptop.svg"
   inkscape:version="1.0.2 (e86c870879, 2021-01-15)">
  <metadata
     id="metadata162">
    <rdf:RDF>
      <cc:Work
         rdf:about="">
        <dc:format>image/svg+xml</dc:format>
        <dc:type
           rdf:resource="http://purl.org/dc/dcmitype/StillImage" />
      </cc:Work>
    </rdf:RDF>
  </metadata>
  <sodipodi:namedview
     pagecolor="#ffffff"
     bordercolor="#666666"
     borderopacity="1"
     objecttolerance="10"
     gridtolerance="10"
     guidetolerance="10"
     inkscape:pageopacity="0"
     inkscape:pageshadow="2"
     inkscape:window-width="1280"
     inkscape:window-height="645"
     id="namedview160"
     showgrid="false"
     inkscape:zoom="0.43360656"
     inkscape:cx="1359.4488"
     inkscape:cy="763.65312"
     inkscape:window-x="0"
     inkscape:window-y="0"
     inkscape:window-maximized="1"
     inkscape:current-layer="svg158" />
  <defs
     id="defs92">
    <pattern
       id="pattern1062"
       patternTransform="translate(1933,767)"
       xlink:href="#pattern9612" />
    <linearGradient
       id="linearGradient1060">
      <stop
         offset="0"
         id="stop3" />
      <stop
         stop-opacity="0"
         offset="1"
         id="stop5" />
    </linearGradient>
    <clipPath
       id="clipPath7951">
      <path
         d="m321 966h1359c13.9 0 26.4 1.75 28.1 3.92l60.9 82.2c1.91 2.58-8.84 4.67-24.1 4.67h-1489c-15.3 0-26-2.09-24.1-4.67l60.9-82.2c1.62-2.18 14.1-3.92 28.1-3.92z"
         fill="#44a410"
         opacity=".423"
         stroke-linecap="round"
         stroke-linejoin="round"
         stroke-width="3.78"
         style="paint-order:stroke fill markers"
         id="path8" />
    </clipPath>
    <radialGradient
       id="radialGradient8124"
       cx="903"
       cy="1070"
       r="993"
       gradientTransform="matrix(0 .529 -2.34 0 3509 475)"
       gradientUnits="userSpaceOnUse">
      <stop
         stop-color="#534d52"
         offset="0"
         id="stop11" />
      <stop
         stop-color="#343031"
         offset="1"
         id="stop13" />
    </radialGradient>
    <linearGradient
       id="linearGradient8269"
       x1="385"
       x2="385"
       y1="985"
       y2="1080"
       gradientTransform="translate(0,-20)"
       gradientUnits="userSpaceOnUse">
      <stop
         stop-color="#262324"
         offset="0"
         id="stop16" />
      <stop
         stop-color="#343031"
         offset="1"
         id="stop18" />
    </linearGradient>
    <filter
       id="filter8271"
       x="-.00321"
       y="-.0354"
       width="1.01"
       height="1.07"
       color-interpolation-filters="sRGB">
      <feGaussianBlur
         stdDeviation="2.6533026"
         id="feGaussianBlur21" />
    </filter>
    <linearGradient
       id="linearGradient8281"
       x1="200"
       x2="1952"
       y1="980"
       y2="1165"
       gradientUnits="userSpaceOnUse"
       gradientTransform="translate(0,-20)">
      <stop
         stop-color="#da16a1"
         offset="0"
         id="stop24"
         style="stop-color:#ffffff;stop-opacity:1" />
      <stop
         stop-color="#0566af"
         offset="1"
         id="stop26" />
    </linearGradient>
    <linearGradient
       id="linearGradient8333"
       x1="7.09"
       x2="1993"
       y1="1156"
       y2="1156"
       gradientTransform="translate(0,-20)"
       gradientUnits="userSpaceOnUse">
      <stop
         stop-color="#fcfcfc"
         stop-opacity=".0847"
         offset="0"
         id="stop29" />
      <stop
         stop-color="#fcfcfc"
         offset=".0302"
         id="stop31" />
      <stop
         stop-color="#fcfcfc"
         stop-opacity=".138"
         offset=".148"
         id="stop33" />
      <stop
         stop-color="#fcfcfc"
         stop-opacity=".184"
         offset=".515"
         id="stop35" />
      <stop
         stop-color="#fcfcfc"
         stop-opacity=".119"
         offset=".863"
         id="stop37" />
      <stop
         stop-color="#fcfcfc"
         stop-opacity=".761"
         offset=".948"
         id="stop39" />
      <stop
         stop-color="#fcfcfc"
         stop-opacity="0"
         offset="1"
         id="stop41" />
    </linearGradient>
    <pattern
       id="pattern9612"
       width="10"
       height="4"
       patternTransform="translate(1933,787)"
       patternUnits="userSpaceOnUse">
      <ellipse
         cx="2.5"
         cy="1"
         rx="2.5"
         ry="1"
         fill="#010101"
         stroke-linecap="round"
         stroke-linejoin="round"
         stroke-width="3.78"
         style="paint-order:stroke fill markers"
         id="ellipse44" />
      <ellipse
         cx="7.5"
         cy="3"
         rx="2.5"
         ry="1"
         fill="#010101"
         stroke-linecap="round"
         stroke-linejoin="round"
         stroke-width="3.78"
         style="paint-order:stroke fill markers"
         id="ellipse46" />
    </pattern>
    <linearGradient
       id="linearGradient10756"
       x1="7.71"
       x2="1992"
       y1="1166"
       y2="1166"
       gradientTransform="translate(0,-20)"
       gradientUnits="userSpaceOnUse">
      <stop
         stop-color="#201f1f"
         offset="0"
         id="stop49" />
      <stop
         stop-color="#534d52"
         offset=".0334"
         id="stop51" />
      <stop
         stop-color="#211f20"
         offset=".251"
         id="stop53" />
      <stop
         stop-color="#312d2e"
         offset=".742"
         id="stop55" />
      <stop
         stop-color="#686067"
         offset=".957"
         id="stop57" />
      <stop
         stop-color="#343031"
         offset="1"
         id="stop59" />
    </linearGradient>
    <linearGradient
       id="linearGradient10811"
       x1="820"
       x2="1195"
       y1="1162"
       y2="1162"
       gradientTransform="translate(-7.5,-20)"
       gradientUnits="userSpaceOnUse">
      <stop
         stop-color="#1a1818"
         offset="0"
         id="stop62" />
      <stop
         stop-color="#343031"
         offset=".08"
         id="stop64" />
      <stop
         stop-color="#343031"
         offset=".92"
         id="stop66" />
      <stop
         stop-color="#1c1a1b"
         offset="1"
         id="stop68" />
    </linearGradient>
    <radialGradient
       id="radialGradient10892"
       cx="945"
       cy="1015"
       r="747"
       gradientTransform="matrix(0 .212 -1.08 0 2093 756)"
       gradientUnits="userSpaceOnUse">
      <stop
         stop-color="#343031"
         offset="0"
         id="stop71" />
      <stop
         stop-color="#534d52"
         offset="1"
         id="stop73" />
    </radialGradient>
    <linearGradient
       id="linearGradient11027"
       x1="143"
       x2="1855"
       y1="1230"
       y2="1230"
       gradientUnits="userSpaceOnUse"
       xlink:href="#linearGradient10811"
       gradientTransform="translate(0,-180)">
      <stop
         stop-opacity=".0406"
         offset="0"
         id="stop76" />
      <stop
         stop-opacity=".979"
         offset=".0136"
         id="stop78" />
      <stop
         stop-opacity=".0314"
         offset=".112"
         id="stop80" />
      <stop
         stop-opacity="0"
         offset=".873"
         id="stop82" />
      <stop
         stop-opacity=".977"
         offset=".987"
         id="stop84" />
      <stop
         stop-opacity="0"
         offset="1"
         id="stop86" />
    </linearGradient>
    <radialGradient
       id="radialGradient1008"
       cx="250"
       cy="1250"
       r="70"
       gradientTransform="translate(-180,-80)"
       gradientUnits="userSpaceOnUse"
       xlink:href="#linearGradient1060" />
    <linearGradient
       id="linearGradient1047"
       x1="100"
       x2="100"
       y1="1170"
       y2="1240"
       gradientUnits="userSpaceOnUse"
       xlink:href="#linearGradient1060" />
    <radialGradient
       id="radialGradient1054"
       cx="250"
       cy="1250"
       r="70"
       gradientTransform="translate(-2180,-80)"
       gradientUnits="userSpaceOnUse"
       xlink:href="#linearGradient1060" />
  </defs>
  <g
     transform="translate(0,-20)"
     opacity=".4"
     stroke-linecap="round"
     stroke-linejoin="round"
     stroke-width="3.78"
     id="g100">
    <rect
       y="1100"
       width="70"
       height="140"
       fill="url(#radialGradient1008)"
       opacity="1"
       style="paint-order:stroke fill markers"
       id="rect94" />
    <rect
       transform="scale(-1,1)"
       x="-2e3"
       y="1100"
       width="70"
       height="140"
       fill="url(#radialGradient1054)"
       style="paint-order:stroke fill markers"
       id="rect96" />
    <rect
       x="70"
       y="1170"
       width="1860"
       height="70"
       ry="0"
       fill="url(#linearGradient1047)"
       opacity="1"
       style="paint-order:stroke fill markers"
       id="rect98" />
  </g>
  <path
     d="m47.6 1160s189 7 962 7 942-7 942-7l-942-15.4z"
     fill="#090909"
     stroke-linecap="round"
     stroke-linejoin="round"
     stroke-width="3.78"
     style="paint-order:stroke fill markers"
     id="path102" />
  <path
     d="m7.71 1131v20c0 3.68 13.5 8.68 39.9 8.68h1905c26.4-.111 39.9-5 39.9-8.68v-20z"
     fill="url(#linearGradient10756)"
     stroke-linecap="round"
     stroke-linejoin="round"
     stroke-width="3.78"
     style="paint-order:stroke fill markers"
     id="path104" />
  <rect
     x="160"
     width="1680"
     height="980"
     ry="40"
     fill="#343031"
     stroke-linecap="round"
     stroke-linejoin="round"
     stroke-width="3.78"
     style="paint-order:stroke fill markers"
     id="rect106" />
  <rect
     x="165"
     y="4"
     width="1670"
     height="970"
     ry="35"
     fill="#534d52"
     stroke-linecap="round"
     stroke-linejoin="round"
     stroke-width="3.78"
     style="paint-order:stroke fill markers"
     id="rect108" />
  <rect
     x="165"
     y="5"
     width="1670"
     height="970"
     ry="35"
     stroke-linecap="round"
     stroke-linejoin="round"
     stroke-width="3.78"
     style="paint-order:stroke fill markers"
     id="rect110" />
  <path
     d="m200 960h1600c22.2 0 42.4 2.76 45.5 6.21l147 165c4.25 4.79-13.5 8.68-39.9 8.68h-1905c-26.4 0-44.2-3.89-39.9-8.68l147-165c3.07-3.45 23.4-6.21 45.5-6.21z"
     fill="url(#radialGradient8124)"
     stroke-linecap="round"
     stroke-linejoin="round"
     stroke-width="3.78"
     style="paint-order:stroke fill markers"
     id="path112" />
  <path
     d="m210 966c-19.5 0-37.3 2.44-40 5.5l-68.3 78.7c-3.13 3.61 11.5 6.53 32.9 6.53h33.1c21.4 0 40.8-2.92 43.6-6.53l60-78.7c2.33-3.06-11.5-5.5-31-5.5h-30.2zm1550 0c-19.5 0-33.4 2.44-31 5.5l60 78.7c2.74 3.61 22.2 6.53 43.6 6.53h33.1c21.4 0 36.1-2.92 32.9-6.53l-68.3-78.7c-2.66-3.06-20.5-5.5-40-5.5h-30.2z"
     fill="url(#pattern1062)"
     opacity=".2"
     stroke-linecap="round"
     stroke-linejoin="round"
     stroke-width="3.78"
     style="paint-order:stroke fill markers"
     id="path114" />
  <path
     d="m321 967h1359c13.9 0 26.4 1.75 28.1 3.92l60.9 82.2c1.91 2.58-8.84 4.67-24.1 4.67h-1489c-15.3 0-26-2.09-24.1-4.67l60.9-82.2c1.62-2.18 14.1-3.92 28.1-3.92z"
     fill="#686067"
     stroke-linecap="round"
     stroke-linejoin="round"
     stroke-width="3.78"
     style="paint-order:stroke fill markers"
     id="path116" />
  <path
     d="m321 966h1359c13.9 0 26.4 1.75 28.1 3.92l60.9 82.2c1.91 2.58-8.84 4.67-24.1 4.67h-1489c-15.3 0-26-2.09-24.1-4.67l60.9-82.2c1.62-2.18 14.1-3.92 28.1-3.92z"
     fill="url(#linearGradient8269)"
     stroke-linecap="round"
     stroke-linejoin="round"
     stroke-width="3.78"
     style="paint-order:stroke fill markers"
     id="path118" />
  <g
     clip-path="url(#clipPath7951)"
     stroke-linecap="round"
     stroke-linejoin="round"
     stroke-width="3.78"
     id="g128">
    <path
       d="m317 976c-2.24 0-4.24.281-4.49.631l-3.65 5.07c-.254.35 1.35.629 3.61.629h73.2c2.25 0 4.25-.279 4.47-.629l3.22-5.07c.222-.35-1.4-.631-3.64-.631zm90.9 0c-2.24 0-4.22.281-4.43.631l-3.16 5.07c-.22.35 1.41.629 3.67.629h63c2.26 0 4.23-.279 4.42-.629l2.79-5.07c.19-.35-1.46-.631-3.69-.631zm80.8 0c-2.23 0-4.19.281-4.38.631l-2.73 5.07c-.19.35 1.47.629 3.72.629h63c2.25 0 4.2-.279 4.36-.629l2.36-5.07c.17-.35-1.5-.631-3.74-.631zm80.8 0c-2.24 0-4.17.281-4.33.631l-2.31 5.07c-.16.35 1.53.629 3.78.629h63c2.25 0 4.17-.279 4.31-.629l1.93-5.07c.13-.35-1.56-.631-3.8-.631zm80.8 0c-2.24 0-4.15.281-4.28.631l-1.87 5.07c-.13.35 1.57.629 3.83.629h63c2.25 0 4.15-.279 4.25-.629l1.5-5.07c.11-.35-1.61-.631-3.85-.631zm80.8 0c-2.24 0-4.12.281-4.22.631l-1.45 5.07c-.1.35 1.63.629 3.89.629h63c2.26 0 4.13-.279 4.21-.629l1.07-5.07c.07-.35-1.67-.631-3.91-.631zm80.8 0c-2.24 0-4.1.281-4.17.631l-1.02 5.07c-.07.35 1.69.629 3.94.629h63c2.25 0 4.1-.279 4.15-.629l.641-5.07c.05-.35-1.72-.631-3.96-.631zm80.8 0c-2.24 0-4.07.281-4.11.631l-.59 5.07c-.04.35 1.74.629 3.99.629h63c2.25 0 4.08-.279 4.09-.629l.221-5.07c.01-.35-1.78-.631-4.02-.631zm80.8 0c-2.24 0-4.05.281-4.06.631l-.16 5.07c-.01.35 1.8.629 4.05.629h63c2.25 0 4.05-.279 4.04-.629l-.221-5.07c-.01-.35-1.83-.631-4.06-.631zm80.8 0c-2.23 0-4.02.281-4 .631l.272 5.07c.01.35 1.84.629 4.1.629h63c2.25 0 4.03-.279 3.98-.629l-.641-5.07c-.05-.35-1.88-.631-4.12-.631zm80.8 0c-2.24 0-4.01.281-3.96.631l.701 5.07c.05.35 1.9.629 4.15.629h63c2.26 0 4.01-.279 3.93-.629l-1.07-5.07c-.07-.35-1.93-.631-4.17-.631zm80.8 0c-2.24 0-3.98.281-3.9.631l1.12 5.07c.08.35 1.96.629 4.21.629h63c2.25 0 3.98-.279 3.88-.629l-1.5-5.07c-.11-.35-1.99-.631-4.23-.631zm80.8 0c-2.24 0-3.95.281-3.85.631l1.56 5.07c.11.35 2.01.629 4.26.629h63c2.25 0 3.96-.279 3.82-.629l-1.93-5.07c-.13-.35-2.04-.631-4.28-.631zm80.8 0c-2.24 0-3.93.281-3.79.631l1.98 5.07c.14.35 2.06.629 4.32.629h63c2.25 0 3.93-.279 3.77-.629l-2.36-5.07c-.17-.35-2.1-.631-4.34-.631zm80.8 0c-2.24 0-3.9.281-3.74.631l2.42 5.07c.16.35 2.11.629 4.37.629h63c2.26 0 3.91-.279 3.72-.629l-2.79-5.07c-.19-.35-2.15-.631-4.39-.631zm80.8 0c-2.24 0-3.88.281-3.68.631l2.84 5.07c.2.35 2.17.629 4.42.629h63c2.25 0 3.89-.279 3.66-.629l-3.21-5.07c-.23-.35-2.21-.631-4.44-.631zm80.8 0c-2.23 0-3.85.281-3.63.631l3.27 5.07c.23.35 2.23.629 4.48.629h63c2.25 0 3.86-.279 3.61-.629l-3.65-5.07c-.25-.35-2.25-.631-4.49-.631zm-1308 7.93c-2.26 0-4.28.291-4.54.641l-8.4 11.7c-.261.36 1.37.65 3.66.65h43.3c2.29 0 4.32-.29 4.57-.65l7.78-11.7c.236-.35-1.39-.641-3.65-.641zm61.1 0c-2.26 0-4.26.291-4.49.641l-7.66 11.7c-.239.36 1.41.65 3.7.65h74.3c2.29 0 4.3-.29 4.51-.65l6.67-11.7c.2-.35-1.45-.641-3.71-.641zm91.6 0c-2.26 0-4.23.291-4.43.641l-6.55 11.7c-.2.36 1.47.65 3.76.65h74.3c2.28 0 4.26-.29 4.44-.65l5.56-11.7c.16-.35-1.52-.641-3.77-.641zm91.6 0c-2.26 0-4.21.291-4.37.641l-5.44 11.7c-.17.36 1.54.65 3.82.65h74.3c2.28 0 4.24-.29 4.38-.65l4.44-11.7c.14-.35-1.57-.641-3.83-.641zm91.6 0c-2.25 0-4.18.291-4.31.641l-4.32 11.7c-.14.36 1.6.65 3.88.65h74.3c2.29 0 4.21-.29 4.31-.65l3.34-11.7c.1-.35-1.63-.641-3.89-.641zm91.7 0c-2.26 0-4.15.291-4.25.641l-3.21 11.7c-.1.36 1.66.65 3.94.65h74.3c2.29 0 4.18-.29 4.25-.65l2.23-11.7c.06-.35-1.7-.641-3.95-.641zm91.6 0c-2.25 0-4.12.291-4.18.641l-2.1 11.7c-.07.36 1.72.65 4.01.65h74.3c2.29 0 4.16-.29 4.19-.65l1.11-11.7c.04-.35-1.75-.641-4.01-.641zm91.6 0c-2.26 0-4.1.291-4.13.641l-.99 11.7c-.03.36 1.79.65 4.08.65h74.3c2.29 0 4.13-.29 4.13-.65v-11.7c0-.35-1.82-.641-4.07-.641zm91.7 0c-2.26 0-4.07.291-4.07.641l.121 11.7c.01.36 1.85.65 4.14.65h74.3c2.29 0 4.1-.29 4.07-.65l-1.11-11.7c-.04-.35-1.88-.641-4.14-.641zm91.6 0c-2.25 0-4.04.291-4 .641l1.23 11.7c.04.36 1.91.65 4.2.65h74.3c2.29 0 4.08-.29 4.01-.65l-2.23-11.7c-.06-.35-1.93-.641-4.19-.641zm91.7 0c-2.26 0-4.02.291-3.95.641l2.35 11.7c.07.36 1.97.65 4.26.65h74.3c2.28 0 4.04-.29 3.94-.65l-3.34-11.7c-.1-.35-2-.641-4.26-.641zm91.6 0c-2.25 0-3.98.291-3.88.641l3.46 11.7c.11.36 2.03.65 4.32.65h74.3c2.28 0 4.01-.29 3.87-.65l-4.44-11.7c-.14-.35-2.06-.641-4.32-.641zm91.7 0c-2.26 0-3.96.291-3.82.641l4.57 11.7c.14.36 2.1.65 4.38.65h74.3c2.28 0 3.99-.29 3.81-.65l-5.56-11.7c-.16-.35-2.12-.641-4.37-.641zm91.7 0c-2.26 0-3.94.291-3.77.641l5.69 11.7c.17.36 2.16.65 4.44.65h136c2.29 0 3.94-.29 3.71-.65l-7.41-11.7c-.23-.35-2.22-.641-4.48-.641zm153 0c-2.26 0-3.89.291-3.66.641l7.53 11.7c.24.36 2.27.65 4.56.65h64c2.29 0 3.92-.29 3.66-.65l-8.4-11.7c-.26-.35-2.28-.641-4.54-.641zm-1324 14.6c-2.29 0-4.35.29-4.61.66l-8.66 12c-.269.38 1.38.68 3.71.68h85.9c2.32 0 4.38-.3 4.61-.68l7.51-12c.229-.37-1.43-.66-3.72-.66zm103 0c-2.29 0-4.32.29-4.54.66l-7.39 12c-.23.38 1.45.68 3.78.68h75.5c2.32 0 4.35-.3 4.55-.68l6.36-12c.2-.37-1.49-.66-3.78-.66zm93 0c-2.29 0-4.28.29-4.47.66l-6.24 12c-.2.38 1.52.68 3.84.68h75.4c2.32 0 4.32-.3 4.48-.68l5.22-12c.16-.37-1.55-.66-3.84-.66zm93 0c-2.29 0-4.26.29-4.41.66l-5.1 12c-.15.38 1.59.68 3.91.68h75.5c2.32 0 4.29-.3 4.42-.68l4.07-12c.13-.37-1.62-.66-3.91-.66zm93 0c-2.29 0-4.23.29-4.35.66l-3.95 12c-.12.38 1.65.68 3.97.68h75.4c2.32 0 4.27-.3 4.36-.68l2.93-12c.08-.37-1.69-.66-3.98-.66zm93 0c-2.29 0-4.2.29-4.29.66l-2.8 12c-.09.38 1.71.68 4.03.68h75.4c2.32 0 4.24-.3 4.29-.68l1.79-12c.05-.37-1.75-.66-4.04-.66zm93 0c-2.29 0-4.18.29-4.23.66l-1.65 12c-.06.38 1.77.68 4.09.68h75.4c2.33 0 4.21-.3 4.23-.68l.639-12c.02-.37-1.81-.66-4.1-.66zm93 0c-2.29 0-4.14.29-4.16.66l-.51 12c-.01.38 1.84.68 4.17.68h75.4c2.33 0 4.18-.3 4.17-.68l-.51-12c-.02-.37-1.87-.66-4.16-.66zm93 0c-2.29 0-4.12.29-4.1.66l.639 12c.02.38 1.9.68 4.23.68h75.4c2.32 0 4.15-.3 4.09-.68l-1.65-12c-.05-.37-1.94-.66-4.23-.66zm93 0c-2.29 0-4.09.29-4.04.66l1.79 12c.05.38 1.97.68 4.29.68h75.4c2.32 0 4.12-.3 4.03-.68l-2.8-12c-.09-.37-2-.66-4.29-.66zm93 0c-2.29 0-4.06.29-3.98.66l2.93 12c.09.38 2.04.68 4.36.68h75.4c2.32 0 4.09-.3 3.97-.68l-3.95-12c-.12-.37-2.06-.66-4.35-.66zm93 0c-2.29 0-4.04.29-3.91.66l4.07 12c.13.38 2.1.68 4.42.68h75.5c2.32 0 4.06-.3 3.91-.68l-5.1-12c-.15-.37-2.12-.66-4.41-.66zm93 0c-2.29 0-4 .29-3.84.66l5.22 12c.16.38 2.16.68 4.48.68h75.4c2.32 0 4.04-.3 3.84-.68l-6.24-12c-.19-.37-2.18-.66-4.47-.66zm93 0c-2.29 0-3.98.29-3.78.66l6.36 12c.2.38 2.23.68 4.55.68h96.4c2.32 0 4-.3 3.76-.68l-7.64-12c-.23-.37-2.26-.66-4.55-.66zm114 0c-2.3 0-3.95.29-3.71.66l7.76 12c.25.38 2.31.68 4.63.68h65c2.33 0 3.98-.3 3.71-.68l-8.66-12c-.26-.37-2.32-.66-4.61-.66zm-1344 15.1c-2.33 0-4.42.3-4.69.68l-8.93 12.4c-.278.38 1.4.699 3.76.699h119c2.36 0 4.44-.319 4.67-.699l7.36-12.4c.223-.38-1.47-.68-3.8-.68zm136 0c-2.33 0-4.37.3-4.59.68l-7.22 12.4c-.225.38 1.49.699 3.85.699h87.3c2.36 0 4.41-.319 4.6-.699l6.04-12.4c.18-.38-1.54-.68-3.87-.68zm105 0c-2.32 0-4.34.3-4.52.68l-5.91 12.4c-.18.38 1.57.699 3.93.699h76.6c2.36 0 4.38-.319 4.54-.699l4.85-12.4c.15-.38-1.6-.68-3.93-.68zm94.5 0c-2.33 0-4.32.3-4.46.68l-4.73 12.4c-.15.38 1.63.699 3.99.699h76.6c2.36 0 4.35-.319 4.47-.699l3.67-12.4c.11-.38-1.67-.68-3.99-.68zm94.5 0c-2.33 0-4.29.3-4.39.68l-3.55 12.4c-.11.38 1.7.699 4.06.699h76.6c2.36 0 4.32-.319 4.39-.699l2.5-12.4c.08-.38-1.74-.68-4.06-.68zm94.5 0c-2.32 0-4.25.3-4.33.68l-2.36 12.4c-.07.38 1.77.699 4.12.699h76.6c2.36 0 4.29-.319 4.33-.699l1.32-12.4c.04-.38-1.8-.68-4.13-.68zm94.5 0c-2.33 0-4.23.3-4.27.68l-1.18 12.4c-.04.38 1.83.699 4.19.699h76.6c2.36 0 4.26-.319 4.26-.699l.141-12.4c0-.38-1.87-.68-4.2-.68zm94.5 0c-2.33 0-4.2.3-4.2.68v12.4c0 .38 1.9.699 4.26.699h76.6c2.35 0 4.23-.319 4.19-.699l-1.05-12.4c-.03-.38-1.93-.68-4.25-.68zm94.5 0c-2.32 0-4.17.3-4.13.68l1.18 12.4c.04.38 1.96.699 4.32.699h76.6c2.36 0 4.2-.319 4.13-.699l-2.23-12.4c-.07-.38-1.99-.68-4.32-.68zm94.5 0c-2.32 0-4.14.3-4.06.68l2.36 12.4c.07.38 2.03.699 4.39.699h76.6c2.36 0 4.17-.319 4.06-.699l-3.41-12.4c-.1-.38-2.06-.68-4.39-.68zm94.5 0c-2.33 0-4.11.3-4.01.68l3.55 12.4c.11.38 2.1.699 4.46.699h76.6c2.35 0 4.14-.319 3.99-.699l-4.59-12.4c-.14-.38-2.13-.68-4.45-.68zm94.5 0c-2.33 0-4.08.3-3.94.68l4.73 12.4c.15.38 2.16.699 4.52.699h76.6c2.36 0 4.11-.319 3.93-.699l-5.78-12.4c-.17-.38-2.18-.68-4.51-.68zm94.5 0c-2.32 0-4.05.3-3.87.68l5.91 12.4c.18.38 2.23.699 4.59.699h151c2.36 0 4.06-.319 3.81-.699l-7.88-12.4c-.24-.38-2.3-.68-4.63-.68zm168 0c-2.33 0-4.01.3-3.76.68l8.01 12.4c.25.38 2.35.699 4.71.699h66c2.36 0 4.03-.319 3.76-.699l-8.93-12.4c-.28-.38-2.37-.68-4.69-.68zm-1365 15.5c-2.36 0-4.49.311-4.77.701l-9.21 12.8c-.288.4 1.41.721 3.81.721h164c2.4 0 4.5-.321 4.72-.721l7.05-12.8c.21-.39-1.52-.701-3.88-.701zm181 0c-2.36 0-4.43.311-4.64.701l-6.91 12.8c-.22.4 1.54.721 3.93.721h77.8c2.39 0 4.47-.321 4.65-.721l5.83-12.8c.18-.39-1.58-.701-3.95-.701zm96 0c-2.36 0-4.4.311-4.57.701l-5.69 12.8c-.18.4 1.6.721 4 .721h77.8c2.39 0 4.44-.321 4.58-.721l4.61-12.8c.14-.39-1.65-.701-4.01-.701zm96 0c-2.37 0-4.38.311-4.51.701l-4.47 12.8c-.14.4 1.67.721 4.07.721h77.9c2.39 0 4.41-.321 4.51-.721l3.39-12.8c.1-.39-1.72-.701-4.08-.701zm96 0c-2.36 0-4.34.311-4.44.701l-3.25 12.8c-.11.4 1.74.721 4.14.721h77.8c2.4 0 4.38-.321 4.45-.721l2.17-12.8c.06-.39-1.79-.701-4.15-.701zm95.9 0c-2.36 0-4.31.311-4.37.701l-2.04 12.8c-.06.4 1.82.721 4.21.721h77.8c2.4 0 4.35-.321 4.38-.721l.951-12.8c.03-.39-1.85-.701-4.21-.701zm96 0c-2.37 0-4.29.311-4.31.701l-.82 12.8c-.02.4 1.89.721 4.28.721h77.9c2.4 0 4.32-.321 4.31-.721l-.27-12.8c-.01-.39-1.92-.701-4.28-.701zm95.9 0c-2.36 0-4.26.311-4.24.701l.4 12.8c.02.4 1.95.721 4.35.721h77.8c2.39 0 4.28-.321 4.24-.721l-1.49-12.8c-.05-.39-1.99-.701-4.35-.701zm95.9 0c-2.36 0-4.22.311-4.17.701l1.62 12.8c.05.4 2.02.721 4.42.721h77.8c2.39 0 4.25-.321 4.17-.721l-2.71-12.8c-.08-.39-2.05-.701-4.42-.701zm96 0c-2.36 0-4.19.311-4.1.701l2.84 12.8c.09.4 2.09.721 4.49.721h77.8c2.4 0 4.23-.321 4.11-.721l-3.93-12.8c-.12-.39-2.12-.701-4.48-.701zm96 0c-2.36 0-4.17.311-4.04.701l4.06 12.8c.13.4 2.16.721 4.55.721h77.8c2.4 0 4.2-.321 4.04-.721l-5.15-12.8c-.16-.39-2.19-.701-4.55-.701zm96 0c-2.36 0-4.13.311-3.97.701l5.28 12.8c.17.4 2.23.721 4.62.721h218c2.39 0 4.12-.321 3.86-.721l-8.13-12.8c-.24-.39-2.35-.701-4.71-.701zm235 0c-2.36 0-4.06.311-3.81.701l8.27 12.8c.25.4 2.39.721 4.79.721h67c2.4 0 4.09-.321 3.81-.721l-9.22-12.8c-.28-.39-2.4-.701-4.77-.701zm-1387 16c-2.4 0-4.56.32-4.85.73l-9.51 13.2c-.296.42 1.43.75 3.86.75h79.1c2.43 0 4.61-.33 4.87-.75l8.39-13.2c.255-.41-1.47-.73-3.87-.73zm97.5 0c-2.4 0-4.53.32-4.79.73l-8.25 13.2c-.257.42 1.5.75 3.93.75h79.1c2.44 0 4.58-.33 4.8-.75l7.13-13.2c.22-.41-1.54-.73-3.94-.73zm97.5 0c-2.4 0-4.51.32-4.72.73l-6.99 13.2c-.22.42 1.56.75 4 .75h79.1c2.44 0 4.54-.33 4.73-.75l5.87-13.2c.18-.41-1.61-.73-4.01-.73zm97.5 0c-2.4 0-4.48.32-4.65.73l-5.74 13.2c-.17.42 1.64.75 4.08.75h79.1c2.43 0 4.51-.33 4.65-.75l4.62-13.2c.14-.41-1.68-.73-4.08-.73zm97.5 0c-2.4 0-4.45.32-4.58.73l-4.48 13.2c-.14.42 1.71.75 4.15.75h530c2.43 0 4.33-.33 4.26-.75l-2.38-13.2c-.07-.41-2.06-.73-4.46-.73zm542 0c-2.4 0-4.27.32-4.19.73l2.52 13.2c.07.42 2.1.75 4.53.75h79.1c2.43 0 4.3-.33 4.19-.75l-3.64-13.2c-.11-.41-2.13-.73-4.53-.73zm97.5 0c-2.4 0-4.24.32-4.12.73l3.77 13.2c.12.42 2.18.75 4.61.75h79.1c2.44 0 4.28-.33 4.12-.75l-4.89-13.2c-.15-.41-2.2-.73-4.6-.73zm97.5 0c-2.4 0-4.21.32-4.05.73l5.03 13.2c.16.42 2.25.75 4.68.75h79.1c2.44 0 4.24-.33 4.05-.75l-6.15-13.2c-.19-.41-2.27-.73-4.67-.73zm184 0c-2.4 0-4.15.32-3.92.73l2.75 4.91c.23.41 2.36.74 4.77.74h67.6c2.41 0 4.15-.33 3.89-.74l-3.12-4.91c-.26-.41-2.39-.73-4.8-.73zm-82.7 8.21c-2.42 0-4.21.33-4.02.74l2.38 4.99c.2.42 2.31.75 4.75.75h68.1c2.43 0 4.21-.33 3.98-.75l-2.75-4.99c-.22-.41-2.35-.74-4.77-.74zm87.3 0c-2.42 0-4.18.33-3.95.74l2.8 4.99c.23.42 2.38.75 4.81.75h68.1c2.43 0 4.18-.33 3.92-.75l-3.17-4.99c-.26-.41-2.42-.74-4.84-.74zm87.3 0c-2.42 0-4.16.33-3.9.74l3.23 4.99c.26.42 2.44.75 4.87.75h68.1c2.44 0 4.16-.33 3.86-.75l-3.6-4.99c-.29-.41-2.47-.74-4.89-.74z"
       style="paint-order:stroke fill markers"
       id="path120" />
    <path
       transform="translate(0,-20)"
       d="m317 989c-2.24 0-4.24.281-4.49.631l-3.65 5.07c-.103.143-.113 1.21-.0996 2.37-1.04.118-1.82.293-1.97.496l-8.4 11.7c-.108.15-.117 1.25-.102 2.44-1.07.12-1.88.301-2.03.518l-8.66 12c-.114.161-.123 1.31-.105 2.53-1.1.123-1.93.311-2.09.535l-8.93 12.4c-.12.165-.128 1.35-.107 2.6-1.13.127-1.99.321-2.16.553l-9.21 12.8c-.127.177-.135 1.4-.111 2.68-1.17.132-2.06.336-2.23.582l-9.51 13.2c-.293.415 0 6 0 6-.296.42 1.43.75 3.86.75h79.1c2.43 0 4.61-.33 4.87-.75l8.39-13.2c.1-.161.108-1.31.0918-2.54h8.58l-6.09 9.75c-.233.38 0 6 0 6-.257.42 1.5.75 3.93.75h79.1c2.44 0 4.58-.33 4.8-.75l7.13-13.2c.184-.343 0-6 0-6 .22-.41-1.54-.73-3.94-.73h-3.2l5.14-9.33c.075-.139.0814-1.25.0703-2.45h8.68l-4.99 9.25c-.185.336 0 6 0 6-.22.4 1.54.721 3.93.721h3.32l-5.16 9.75c-.181.345 0 6 0 6-.22.42 1.56.75 4 .75h79.1c2.44 0 4.54-.33 4.73-.75l5.87-13.2c.136-.309 0-6 0-6 .18-.41-1.61-.73-4.01-.73h-3.77l4.25-9.33c.0581-.126.0634-1.25.0547-2.45h9.04l-4.11 9.25c-.136.302 0 6 0 6-.18.4 1.6.721 4 .721h3.88l-4.24 9.75c-.125.309 0 6 0 6-.17.42 1.64.75 4.08.75h79.1c2.43 0 4.51-.33 4.65-.75l4.62-13.2c.0911-.267 0-6 0-6 .14-.41-1.68-.73-4.08-.73h-4.34l3.36-9.33c.0394-.11.0431-1.24.0371-2.45h9.39l-3.23 9.25c-.0913.261 0 6 0 6-.14.4 1.67.721 4.07.721h4.46l-3.31 9.75c-.0887.266 0 6 0 6-.14.42 1.71.75 4.15.75h530c2.43 0 4.33-.33 4.26-.75 0 0 .032-5.81 0-6l-1.76-9.75h10.2c0 1.19-3e-4 2.46.012 2.54l2.52 13.2c.07.42 2.1.75 4.53.75h79.1c2.43 0 4.3-.33 4.19-.75 0 0 .062-5.76 0-6l-2.69-9.75h9.86c-.01 1.26 4e-4 2.44.027 2.54l3.77 13.2c.12.42 2.18.75 4.61.75h79.1c2.44 0 4.28-.33 4.12-.75 0 0 .107-5.72 0-6l-3.61-9.75h9.52c-.01 1.25 0 2.42.043 2.54l5.03 13.2c.16.42 2.25.75 4.68.75h79.1c2.44 0 4.24-.33 4.05-.75 0 0 .146-5.68 0-6l-4.54-9.75h95.9c-.015 1.22-.01 2.37.084 2.54l2.75 4.91c.123.22.814.412 1.78.547-.019 1.32-.014 2.6.08 2.76l2.8 4.99c.23.42 2.38.75 4.81.75h68.1c2.43 0 4.18-.33 3.92-.75 0 0 .249-5.6 0-6l-3.17-4.99c-.147-.232-.935-.429-2-.564.023-1.3.017-2.56-.1-2.75l-3.12-4.91c-.147-.232-.924-.428-1.98-.56.02-1.29.015-2.53-.092-2.7l-8.13-12.8c-.134-.218-.887-.403-1.91-.531.018-1.26.012-2.46-.09-2.62l-7.88-12.4c-.134-.211-.859-.392-1.85-.516.016-1.23.01-2.39-.088-2.54l-7.64-12c-.127-.204-.829-.378-1.79-.498.014-1.2.01-2.32-.086-2.46l-7.41-11.7c-.126-.192-.804-.358-1.74-.477.013-1.17 2e-4-2.25-.09-2.39l-3.21-5.07c-.23-.35-2.21-.631-4.44-.631h-62.6c-2.24 0-3.88.281-3.68.631 0 0-.197 5.66 0 6l.727 1.3h-7.97c.01-1.1-7e-4-2.1-.072-2.23l-2.79-5.07c-.19-.35-2.15-.631-4.39-.631h-62.6c-2.24 0-3.9.281-3.74.631 0 0-.146 5.68 0 6l.639 1.34c-.398-.0196-.799-.0391-1.23-.0391h-7.09c.01-1.11 1e-4-2.11-.057-2.23l-2.36-5.07c-.17-.35-2.1-.631-4.34-.631h-62.6c-2.24 0-3.93.281-3.79.631 0 0-.118 5.71 0 6l1.98 5.07c.06.15.492.279 1.09.387-.01 1.23 0 2.37.039 2.48l3.12 7.98h-8.83c0-1.15 7e-4-2.2-.039-2.3l-4.44-11.7c-.059-.146-.479-.276-1.05-.385.01-1.22 1e-4-2.36-.045-2.48l-1.93-5.07c-.13-.35-2.04-.631-4.28-.631h-62.6c-2.24 0-3.95.281-3.85.631 0 0-.077 5.73 0 6l.398 1.3h-4.27c-2.25 0-3.98.291-3.88.641 0 0-.061 5.79 0 6l2.36 7.98h-9.2c0-1.04 0-2.22-.019-2.3l-2.27-7.92h4.38c2.25 0 3.98-.279 3.88-.629 0 0 .076-5.73 0-6l-1.5-5.07c-.11-.35-1.99-.631-4.23-.631h-62.6c-2.24 0-3.98.281-3.9.631 0 0-.056 5.75 0 6l.287 1.3h-9.31c0-.993 3e-4-2.14-.016-2.23l-1.07-5.07c-.07-.35-1.93-.631-4.17-.631h-62.6c-2.24 0-4.01.281-3.96.631 0 0-.032 5.78 0 6l.18 1.3h-9.64c8e-4-1.03.012-2.15 0-2.23l-.641-5.07c-.05-.35-1.88-.631-4.12-.631h-62.6c-2.23 0-4.02.281-4 .631 0 0-.011 5.8 0 6l.07 1.3h-9.96c3e-4-1.04 0-2.16 0-2.23l-.221-5.07c-.01-.35-1.83-.631-4.06-.631h-62.6c-2.24 0-4.05.281-4.06.631l-.16 5.07c-.006.193.165.749.16.93l-.041 1.3h-10.1l.0566-1.3c.006-.196-.226-.752-.221-.93l.221-5.07c.01-.35-1.78-.631-4.02-.631h-62.6c-2.24 0-4.07.281-4.11.631l-.59 5.07c-.009.0797-.00065 1.19 0 2.23h-9.68l.164-1.3c.0312-.219 0-6 0-6 .05-.35-1.72-.631-3.96-.631h-62.6c-2.24 0-4.1.281-4.17.631l-1.02 5.07c-.0172.086-.0126 1.24-.0117 2.23h-9.34l.273-1.3c.0485-.242 1e-5-6 0-6 .07-.35-1.67-.631-3.91-.631h-62.6c-2.24 0-4.12.281-4.22.631l-1.45 5.07c-.075.262 0 6 0 6-.1.35 1.63.629 3.89.629h4.45l-2.18 7.92c-.0219.079-.0173 1.26-.0156 2.3h-9.25l2.28-7.98c.0602-.211 0-6 0-6 .1-.35-1.63-.641-3.89-.641h-4.94l.988-7.3c.11-.35-1.61-.631-3.85-.631h-62.6c-2.24 0-4.15.281-4.28.631l-1.87 5.07c-.0453.122-.0481 1.26-.041 2.49-.563.108-.976.236-1.03.381l-4.32 11.7c-.0392.101-.044 1.15-.0391 2.3h-8.86l3.03-7.98c.0424-.106.0458-1.25.0391-2.49.579-.106 1-.234 1.06-.381l1.93-5.07c.108-.291 0-6 0-6 .13-.35-1.56-.631-3.8-.631h-62.6c-2.24 0-4.17.281-4.33.631l-2.31 5.07c-.0558.122-.0626 1.12-.0566 2.23h-7.06c-.456 0-.884.0192-1.3.041l.623-1.34c.154-.316 0-6 0-6 .17-.35-1.5-.631-3.74-.631h-62.6c-2.23 0-4.19.281-4.38.631l-2.73 5.07c-.0713.131-.0797 1.13-.0723 2.23h-8.01l.715-1.3c.185-.341 0-6 0-6 .19-.35-1.46-.631-3.69-.631h-62.6c-2.24 0-4.22.281-4.43.631l-3.16 5.07c-.0857.136-.0967 1.13-.0879 2.23h-7.68l.824-1.3c.222-.35 0-6 0-6 .222-.35-1.4-.631-3.64-.631h-72.7zm1303 0c-2.23 0-3.85.281-3.63.631 0 0-.22 5.65 0 6l3.27 5.07c.127.193.821.358 1.77.473-.013 1.17-1e-4 2.26.088 2.4l7.53 11.7c.134.2.851.373 1.83.492-.014 1.2-.01 2.32.09 2.47l7.76 12c.14.213.882.394 1.89.518-.016 1.23-.01 2.39.092 2.54l8.01 12.4c.141.215.904.402 1.94.531-.018 1.26-.011 2.46.092 2.62l8.27 12.8c.25.4 2.39.721 4.79.721h67c2.4 0 4.09-.321 3.81-.721 0 0 .28-5.6 0-6l-9.22-12.8c-.166-.232-1.02-.425-2.15-.553.02-1.25.012-2.43-.106-2.6l-8.93-12.4c-.165-.224-.995-.41-2.09-.533.018-1.22.01-2.37-.106-2.53l-8.66-12c-.152-.217-.956-.398-2.03-.518.016-1.19.01-2.29-.102-2.44l-8.4-11.7c-.151-.203-.931-.378-1.97-.496.013-1.16 4e-4-2.23-.098-2.37l-3.65-5.07c-.25-.35-2.25-.631-4.49-.631h-62.6zm-1070 12.3-3.71 7.96c-.0542.115-.0594 1.16-.0527 2.3h-8.5l3.8-7.98c.051-.111.0564-1.12.0508-2.24h7.11c.454 0 .88-.018 1.3-.039zm910 0c.4.019.805.037 1.24.037h7.13c-.01 1.12-4e-4 2.13.055 2.24l3.89 7.98h-8.46c.01-1.14 3e-4-2.18-.057-2.3l-3.79-7.96zm-1102 .037h7.63l-5.19 7.92c-.0925.139-.103 1.17-.0918 2.3h-7.76l5.32-7.98c.0913-.135.101-1.14.0918-2.24zm91.7 0h8.01l-4.44 7.92c-.0706.127-.0788 1.16-.0703 2.3h-8.13l4.56-7.98c.0705-.124.078-1.13.0703-2.24zm367 0h9.51l-1.42 7.92c-.0125.064-.001 1.22 0 2.3h-9.61l1.52-7.98c.0109-.064.00082-1.2 0-2.24zm91.7 0h9.87l-.672 7.92c-.003.042-.00032 1.22 0 2.3h-9.96l.758-7.98c.005-.042.00037-1.2 0-2.24zm91.7 0h10.2l.07 10.2h-10.3v-10.2zm92.1 0h9.83c-4e-4 1.04-.01 2.2 0 2.24l.84 7.98h-9.92c4e-4-1.08 0-2.26 0-2.3l-.752-7.92zm92.1 0h9.46c-7e-4 1.01-2e-4 2.18.01 2.24l1.61 7.98h-9.55c.001-1.05 2e-4-2.24-.01-2.3l-1.51-7.92zm-794 14.6h8l-5.12 8.34c-.0866.143-.0955 1.22-.084 2.38h-8.13l5.25-8.41c.0861-.139.0943-1.18.084-2.31zm93.1 0h8.37l-4.32 8.34c-.0684.13-.0738 1.21-.0644 2.38h-8.49l4.45-8.41c.0684-.126.0767-1.17.0684-2.31zm93.1 0h8.74l-3.54 8.34c-.0461.117-.0493 1.2-.043 2.38h-8.86l3.65-8.41c.0492-.114.053-1.16.0469-2.31zm93.1 0h9.11l-2.74 8.34c-.0317.1-.0358 1.19-.0312 2.38h-9.21l2.85-8.41c.0346-.098.0376-1.15.0332-2.31zm93.1 0h9.47l-1.94 8.34c-.0185.078-.0155 1.29-.0137 2.38h-9.57l2.05-8.41c.0164-.076.013-1.26.0117-2.31zm93.1 0h9.83l-1.14 8.34c-.009.059-.001 1.25 0 2.38h-9.94l1.25-8.41c.008-.058.00075-1.22 0-2.31zm93.1 0h10.2l-.354 8.34c-.00081.032-1e-4 1.24 0 2.38h-10.3l.447-8.41c.002-.035.00018-1.22 0-2.31zm93.3 0h10.2v2.31l.447 8.41h-10.3v-2.38l-.354-8.34zm93.4 0h9.83c-8e-4 1.09-.01 2.25 0 2.31l1.25 8.41h-9.94c.001-1.13.01-2.32 0-2.38zm93.5 0h9.47c0 1.05-3e-4 2.23.012 2.31l2.05 8.41h-9.57c0-1.09 4e-4-2.3-.014-2.38l-1.94-8.34zm93.5 0h9.11c0 1.16 2e-4 2.21.033 2.31l2.85 8.41h-9.21c0-1.19 4e-4-2.28-.031-2.38l-2.74-8.34zm93.5 0h8.74c-.01 1.15-1e-4 2.2.047 2.31l3.65 8.41h-8.85c.01-1.18 1e-4-2.26-.045-2.38l-3.54-8.34zm93.5 0h8.37c-.01 1.14 4e-4 2.18.068 2.31l4.45 8.41h-8.49c.01-1.17 5e-4-2.25-.064-2.38l-4.32-8.34zm-1097 15h8.32l-5.12 8.79c-.0831.14-.0903 1.25-.0781 2.45h-8.45l5.25-8.86c.0822-.14.0891-1.21.0781-2.38zm105 0h8.72l-4.19 8.79c-.0595.126-.0636 1.24-.0547 2.45h-8.85l4.31-8.86c.0594-.126.0647-1.21.0566-2.38zm94.5 0h9.09l-3.35 8.79c-.0437.111-.0477 1.24-.041 2.45h-9.2l3.46-8.86c.0439-.111.0471-1.2.041-2.38zm94.5 0h9.46l-2.52 8.79c-.0256.089-.0225 1.32-.0195 2.45h-9.56l2.62-8.86c.0256-.088.022-1.29.0195-2.38zm94.5 0h9.8l-1.67 8.79c-.0135.073-.002 1.28 0 2.45h-9.93l1.79-8.86c.0154-.073.0132-1.28.0117-2.38zm94.5 0h10.2l-.838 8.79c-.005.049-.00069 1.27 0 2.45h-10.3l.943-8.86c.005-.051.00061-1.25 0-2.38zm94.5 0h10.5v11.2h-10.6l.0859-11.2zm94.9 0h10.2c-6e-4 1.13-.01 2.33 0 2.38l.844 8.86h-10.3c6e-4-1.18 0-2.4 0-2.45zm94.9 0h9.85c0 1.1-.01 2.31.01 2.38l1.68 8.86h-9.96c0-1.17.013-2.38 0-2.45zm94.9 0h9.49c0 1.09-.01 2.29.016 2.38l2.54 8.86h-9.61c0-1.13.01-2.36-.02-2.45l-2.42-8.79zm94.9 0h9.12c-.01 1.18 1e-4 2.27.039 2.38l3.38 8.86h-9.25c.01-1.21 0-2.34-.041-2.45l-3.25-8.79zm94.9 0h8.77c-.01 1.18-3e-4 2.26.055 2.38l4.22 8.86h-8.89c.01-1.21 3e-4-2.32-.055-2.45zm-731 15.5h9.75l-2.35 9.25c-.0247.09-.0229 1.35-.0195 2.53h-9.87l2.47-9.33c.0224-.087.0202-1.32.0176-2.45zm96 0h10.1l-1.47 9.25c-.0105.07-.002 1.31 0 2.53h-10.2l1.58-9.33c.0107-.069.001-1.28 0-2.45zm96 0h10.4l-.594 9.25c-.002.044-.00032 1.3 0 2.53h-10.5l.693-9.33c.003-.045.00044-1.27 0-2.45zm96.1 0h10.6v2.45l.291 9.33h-10.7v-2.53l-.195-9.25zm96.4 0h10.3c0 1.18-.01 2.39 0 2.45l1.18 9.33h-10.4c9e-4-1.22.01-2.47 0-2.53zm96.4 0h9.9c0 1.14-3e-4 2.37.014 2.45l2.07 9.33h-10c0-1.18 3e-4-2.45-.014-2.53l-1.96-9.25zm96.4 0h9.55c-.01 1.22-8e-4 2.35.033 2.45l2.96 9.33h-9.67c.01-1.25-3e-4-2.42-.029-2.53l-2.84-9.25zm96.4 0h9.2c-.01 1.21-1e-4 2.33.045 2.45l3.85 9.33h-9.32c.01-1.24 1e-4-2.41-.045-2.53l-3.72-9.25zm88.8 20c-2.42 0-4.21.33-4.02.74 0 0-.159 5.66 0 6l2.38 4.99c.2.42 2.31.75 4.75.75h68.1c2.43 0 4.21-.33 3.98-.75 0 0 .205-5.63 0-6l-2.75-4.99c-.22-.41-2.35-.74-4.77-.74h-67.7zm175 0c-2.42 0-4.16.33-3.9.74 0 0-.253 5.6 0 6l3.23 4.99c.26.42 2.44.75 4.87.75h68.1c2.44 0 4.16-.33 3.86-.75 0 0 .3-5.58 0-6l-3.6-4.99c-.29-.41-2.47-.74-4.89-.74h-67.7z"
       fill="#191818"
       style="paint-order:stroke fill markers"
       id="path122" />
    <path
       d="m317 969c-2.24 0-4.24.281-4.49.631l-3.65 5.07c-.254.35 1.35.629 3.61.629h73.2c2.25 0 4.25-.279 4.47-.629l3.22-5.07c.222-.35-1.4-.631-3.64-.631zm90.9 0c-2.24 0-4.22.281-4.43.631l-3.16 5.07c-.22.35 1.41.629 3.67.629h63c2.26 0 4.23-.279 4.42-.629l2.79-5.07c.19-.35-1.46-.631-3.69-.631zm80.8 0c-2.23 0-4.19.281-4.38.631l-2.73 5.07c-.19.35 1.47.629 3.72.629h63c2.25 0 4.2-.279 4.36-.629l2.36-5.07c.17-.35-1.5-.631-3.74-.631zm80.8 0c-2.24 0-4.17.281-4.33.631l-2.31 5.07c-.16.35 1.53.629 3.78.629h63c2.25 0 4.17-.279 4.31-.629l1.93-5.07c.13-.35-1.56-.631-3.8-.631zm80.8 0c-2.24 0-4.15.281-4.28.631l-1.87 5.07c-.13.35 1.57.629 3.83.629h63c2.25 0 4.15-.279 4.25-.629l1.5-5.07c.11-.35-1.61-.631-3.85-.631zm80.8 0c-2.24 0-4.12.281-4.22.631l-1.45 5.07c-.1.35 1.63.629 3.89.629h63c2.26 0 4.13-.279 4.21-.629l1.07-5.07c.07-.35-1.67-.631-3.91-.631zm80.8 0c-2.24 0-4.1.281-4.17.631l-1.02 5.07c-.07.35 1.69.629 3.94.629h63c2.25 0 4.1-.279 4.15-.629l.641-5.07c.05-.35-1.72-.631-3.96-.631zm80.8 0c-2.24 0-4.07.281-4.11.631l-.59 5.07c-.04.35 1.74.629 3.99.629h63c2.25 0 4.08-.279 4.09-.629l.221-5.07c.01-.35-1.78-.631-4.02-.631zm80.8 0c-2.24 0-4.05.281-4.06.631l-.16 5.07c-.01.35 1.8.629 4.05.629h63c2.25 0 4.05-.279 4.04-.629l-.221-5.07c-.01-.35-1.83-.631-4.06-.631zm80.8 0c-2.23 0-4.02.281-4 .631l.272 5.07c.01.35 1.84.629 4.1.629h63c2.25 0 4.03-.279 3.98-.629l-.641-5.07c-.05-.35-1.88-.631-4.12-.631zm80.8 0c-2.24 0-4.01.281-3.96.631l.701 5.07c.05.35 1.9.629 4.15.629h63c2.26 0 4.01-.279 3.93-.629l-1.07-5.07c-.07-.35-1.93-.631-4.17-.631zm80.8 0c-2.24 0-3.98.281-3.9.631l1.12 5.07c.08.35 1.96.629 4.21.629h63c2.25 0 3.98-.279 3.88-.629l-1.5-5.07c-.11-.35-1.99-.631-4.23-.631zm80.8 0c-2.24 0-3.95.281-3.85.631l1.56 5.07c.11.35 2.01.629 4.26.629h63c2.25 0 3.96-.279 3.82-.629l-1.93-5.07c-.13-.35-2.04-.631-4.28-.631zm80.8 0c-2.24 0-3.93.281-3.79.631l1.98 5.07c.14.35 2.06.629 4.32.629h63c2.25 0 3.93-.279 3.77-.629l-2.36-5.07c-.17-.35-2.1-.631-4.34-.631zm80.8 0c-2.24 0-3.9.281-3.74.631l2.42 5.07c.16.35 2.11.629 4.37.629h63c2.26 0 3.91-.279 3.72-.629l-2.79-5.07c-.19-.35-2.15-.631-4.39-.631zm80.8 0c-2.24 0-3.88.281-3.68.631l2.84 5.07c.2.35 2.17.629 4.42.629h63c2.25 0 3.89-.279 3.66-.629l-3.21-5.07c-.23-.35-2.21-.631-4.44-.631zm80.8 0c-2.23 0-3.85.281-3.63.631l3.27 5.07c.23.35 2.23.629 4.48.629h63c2.25 0 3.86-.279 3.61-.629l-3.65-5.07c-.25-.35-2.25-.631-4.49-.631zm-1308 7.93c-2.26 0-4.28.291-4.54.641l-8.4 11.7c-.261.36 1.37.65 3.66.65h43.3c2.29 0 4.32-.29 4.57-.65l7.78-11.7c.236-.35-1.39-.641-3.65-.641zm61.1 0c-2.26 0-4.26.291-4.49.641l-7.66 11.7c-.239.36 1.41.65 3.7.65h74.3c2.29 0 4.3-.29 4.51-.65l6.67-11.7c.2-.35-1.45-.641-3.71-.641zm91.6 0c-2.26 0-4.23.291-4.43.641l-6.55 11.7c-.2.36 1.47.65 3.76.65h74.3c2.28 0 4.26-.29 4.44-.65l5.56-11.7c.16-.35-1.52-.641-3.77-.641zm91.6 0c-2.26 0-4.21.291-4.37.641l-5.44 11.7c-.17.36 1.54.65 3.82.65h74.3c2.28 0 4.24-.29 4.38-.65l4.44-11.7c.14-.35-1.57-.641-3.83-.641zm91.6 0c-2.25 0-4.18.291-4.31.641l-4.32 11.7c-.14.36 1.6.65 3.88.65h74.3c2.29 0 4.21-.29 4.31-.65l3.34-11.7c.1-.35-1.63-.641-3.89-.641zm91.7 0c-2.26 0-4.15.291-4.25.641l-3.21 11.7c-.1.36 1.66.65 3.94.65h74.3c2.29 0 4.18-.29 4.25-.65l2.23-11.7c.06-.35-1.7-.641-3.95-.641zm91.6 0c-2.25 0-4.12.291-4.18.641l-2.1 11.7c-.07.36 1.72.65 4.01.65h74.3c2.29 0 4.16-.29 4.19-.65l1.11-11.7c.04-.35-1.75-.641-4.01-.641zm91.6 0c-2.26 0-4.1.291-4.13.641l-.99 11.7c-.03.36 1.79.65 4.08.65h74.3c2.29 0 4.13-.29 4.13-.65v-11.7c0-.35-1.82-.641-4.07-.641zm91.7 0c-2.26 0-4.07.291-4.07.641l.121 11.7c.01.36 1.85.65 4.14.65h74.3c2.29 0 4.1-.29 4.07-.65l-1.11-11.7c-.04-.35-1.88-.641-4.14-.641zm91.6 0c-2.25 0-4.04.291-4 .641l1.23 11.7c.04.36 1.91.65 4.2.65h74.3c2.29 0 4.08-.29 4.01-.65l-2.23-11.7c-.06-.35-1.93-.641-4.19-.641zm91.7 0c-2.26 0-4.02.291-3.95.641l2.35 11.7c.07.36 1.97.65 4.26.65h74.3c2.28 0 4.04-.29 3.94-.65l-3.34-11.7c-.1-.35-2-.641-4.26-.641zm91.6 0c-2.25 0-3.98.291-3.88.641l3.46 11.7c.11.36 2.03.65 4.32.65h74.3c2.28 0 4.01-.29 3.87-.65l-4.44-11.7c-.14-.35-2.06-.641-4.32-.641zm91.7 0c-2.26 0-3.96.291-3.82.641l4.57 11.7c.14.36 2.1.65 4.38.65h74.3c2.28 0 3.99-.29 3.81-.65l-5.56-11.7c-.16-.35-2.12-.641-4.37-.641zm91.7 0c-2.26 0-3.94.291-3.77.641l5.69 11.7c.17.36 2.16.65 4.44.65h136c2.29 0 3.94-.29 3.71-.65l-7.41-11.7c-.23-.35-2.22-.641-4.48-.641zm153 0c-2.26 0-3.89.291-3.66.641l7.53 11.7c.24.36 2.27.65 4.56.65h64c2.29 0 3.92-.29 3.66-.65l-8.4-11.7c-.26-.35-2.28-.641-4.54-.641zm-1324 14.6c-2.29 0-4.35.29-4.61.66l-8.66 12c-.269.38 1.38.68 3.71.68h85.9c2.32 0 4.38-.3 4.61-.68l7.51-12c.229-.37-1.43-.66-3.72-.66zm103 0c-2.29 0-4.32.29-4.54.66l-7.39 12c-.23.38 1.45.68 3.78.68h75.5c2.32 0 4.35-.3 4.55-.68l6.36-12c.2-.37-1.49-.66-3.78-.66zm93 0c-2.29 0-4.28.29-4.47.66l-6.24 12c-.2.38 1.52.68 3.84.68h75.4c2.32 0 4.32-.3 4.48-.68l5.22-12c.16-.37-1.55-.66-3.84-.66zm93 0c-2.29 0-4.26.29-4.41.66l-5.1 12c-.15.38 1.59.68 3.91.68h75.5c2.32 0 4.29-.3 4.42-.68l4.07-12c.13-.37-1.62-.66-3.91-.66zm93 0c-2.29 0-4.23.29-4.35.66l-3.95 12c-.12.38 1.65.68 3.97.68h75.4c2.32 0 4.27-.3 4.36-.68l2.93-12c.08-.37-1.69-.66-3.98-.66zm93 0c-2.29 0-4.2.29-4.29.66l-2.8 12c-.09.38 1.71.68 4.03.68h75.4c2.32 0 4.24-.3 4.29-.68l1.79-12c.05-.37-1.75-.66-4.04-.66zm93 0c-2.29 0-4.18.29-4.23.66l-1.65 12c-.06.38 1.77.68 4.09.68h75.4c2.33 0 4.21-.3 4.23-.68l.639-12c.02-.37-1.81-.66-4.1-.66zm93 0c-2.29 0-4.14.29-4.16.66l-.51 12c-.01.38 1.84.68 4.17.68h75.4c2.33 0 4.18-.3 4.17-.68l-.51-12c-.02-.37-1.87-.66-4.16-.66zm93 0c-2.29 0-4.12.29-4.1.66l.639 12c.02.38 1.9.68 4.23.68h75.4c2.32 0 4.15-.3 4.09-.68l-1.65-12c-.05-.37-1.94-.66-4.23-.66zm93 0c-2.29 0-4.09.29-4.04.66l1.79 12c.05.38 1.97.68 4.29.68h75.4c2.32 0 4.12-.3 4.03-.68l-2.8-12c-.09-.37-2-.66-4.29-.66zm93 0c-2.29 0-4.06.29-3.98.66l2.93 12c.09.38 2.04.68 4.36.68h75.4c2.32 0 4.09-.3 3.97-.68l-3.95-12c-.12-.37-2.06-.66-4.35-.66zm93 0c-2.29 0-4.04.29-3.91.66l4.07 12c.13.38 2.1.68 4.42.68h75.5c2.32 0 4.06-.3 3.91-.68l-5.1-12c-.15-.37-2.12-.66-4.41-.66zm93 0c-2.29 0-4 .29-3.84.66l5.22 12c.16.38 2.16.68 4.48.68h75.4c2.32 0 4.04-.3 3.84-.68l-6.24-12c-.19-.37-2.18-.66-4.47-.66zm93 0c-2.29 0-3.98.29-3.78.66l6.36 12c.2.38 2.23.68 4.55.68h96.4c2.32 0 4-.3 3.76-.68l-7.64-12c-.23-.37-2.26-.66-4.55-.66zm114 0c-2.3 0-3.95.29-3.71.66l7.76 12c.25.38 2.31.68 4.63.68h65c2.33 0 3.98-.3 3.71-.68l-8.66-12c-.26-.37-2.32-.66-4.61-.66zm-1344 15.1c-2.33 0-4.42.3-4.69.68l-8.93 12.4c-.278.38 1.4.699 3.76.699h119c2.36 0 4.44-.319 4.67-.699l7.36-12.4c.223-.38-1.47-.68-3.8-.68zm136 0c-2.33 0-4.37.3-4.59.68l-7.22 12.4c-.225.38 1.49.699 3.85.699h87.3c2.36 0 4.41-.319 4.6-.699l6.04-12.4c.18-.38-1.54-.68-3.87-.68zm105 0c-2.32 0-4.34.3-4.52.68l-5.91 12.4c-.18.38 1.57.699 3.93.699h76.6c2.36 0 4.38-.319 4.54-.699l4.85-12.4c.15-.38-1.6-.68-3.93-.68zm94.5 0c-2.33 0-4.32.3-4.46.68l-4.73 12.4c-.15.38 1.63.699 3.99.699h76.6c2.36 0 4.35-.319 4.47-.699l3.67-12.4c.11-.38-1.67-.68-3.99-.68zm94.5 0c-2.33 0-4.29.3-4.39.68l-3.55 12.4c-.11.38 1.7.699 4.06.699h76.6c2.36 0 4.32-.319 4.39-.699l2.5-12.4c.08-.38-1.74-.68-4.06-.68zm94.5 0c-2.32 0-4.25.3-4.33.68l-2.36 12.4c-.07.38 1.77.699 4.12.699h76.6c2.36 0 4.29-.319 4.33-.699l1.32-12.4c.04-.38-1.8-.68-4.13-.68zm94.5 0c-2.33 0-4.23.3-4.27.68l-1.18 12.4c-.04.38 1.83.699 4.19.699h76.6c2.36 0 4.26-.319 4.26-.699l.141-12.4c0-.38-1.87-.68-4.2-.68zm94.5 0c-2.33 0-4.2.3-4.2.68v12.4c0 .38 1.9.699 4.26.699h76.6c2.35 0 4.23-.319 4.19-.699l-1.05-12.4c-.03-.38-1.93-.68-4.25-.68zm94.5 0c-2.32 0-4.17.3-4.13.68l1.18 12.4c.04.38 1.96.699 4.32.699h76.6c2.36 0 4.2-.319 4.13-.699l-2.23-12.4c-.07-.38-1.99-.68-4.32-.68zm94.5 0c-2.32 0-4.14.3-4.06.68l2.36 12.4c.07.38 2.03.699 4.39.699h76.6c2.36 0 4.17-.319 4.06-.699l-3.41-12.4c-.1-.38-2.06-.68-4.39-.68zm94.5 0c-2.33 0-4.11.3-4.01.68l3.55 12.4c.11.38 2.1.699 4.46.699h76.6c2.35 0 4.14-.319 3.99-.699l-4.59-12.4c-.14-.38-2.13-.68-4.45-.68zm94.5 0c-2.33 0-4.08.3-3.94.68l4.73 12.4c.15.38 2.16.699 4.52.699h76.6c2.36 0 4.11-.319 3.93-.699l-5.78-12.4c-.17-.38-2.18-.68-4.51-.68zm94.5 0c-2.32 0-4.05.3-3.87.68l5.91 12.4c.18.38 2.23.699 4.59.699h151c2.36 0 4.06-.319 3.81-.699l-7.88-12.4c-.24-.38-2.3-.68-4.63-.68zm168 0c-2.33 0-4.01.3-3.76.68l8.01 12.4c.25.38 2.35.699 4.71.699h66c2.36 0 4.03-.319 3.76-.699l-8.93-12.4c-.28-.38-2.37-.68-4.69-.68zm-1365 15.5c-2.36 0-4.49.311-4.77.701l-9.21 12.8c-.288.4 1.41.721 3.81.721h164c2.4 0 4.5-.321 4.72-.721l7.05-12.8c.21-.39-1.52-.701-3.88-.701zm181 0c-2.36 0-4.43.311-4.64.701l-6.91 12.8c-.22.4 1.54.721 3.93.721h77.8c2.39 0 4.47-.321 4.65-.721l5.83-12.8c.18-.39-1.58-.701-3.95-.701zm96 0c-2.36 0-4.4.311-4.57.701l-5.69 12.8c-.18.4 1.6.721 4 .721h77.8c2.39 0 4.44-.321 4.58-.721l4.61-12.8c.14-.39-1.65-.701-4.01-.701zm96 0c-2.37 0-4.38.311-4.51.701l-4.47 12.8c-.14.4 1.67.721 4.07.721h77.9c2.39 0 4.41-.321 4.51-.721l3.39-12.8c.1-.39-1.72-.701-4.08-.701zm96 0c-2.36 0-4.34.311-4.44.701l-3.25 12.8c-.11.4 1.74.721 4.14.721h77.8c2.4 0 4.38-.321 4.45-.721l2.17-12.8c.06-.39-1.79-.701-4.15-.701zm95.9 0c-2.36 0-4.31.311-4.37.701l-2.04 12.8c-.06.4 1.82.721 4.21.721h77.8c2.4 0 4.35-.321 4.38-.721l.951-12.8c.03-.39-1.85-.701-4.21-.701zm96 0c-2.37 0-4.29.311-4.31.701l-.82 12.8c-.02.4 1.89.721 4.28.721h77.9c2.4 0 4.32-.321 4.31-.721l-.27-12.8c-.01-.39-1.92-.701-4.28-.701zm95.9 0c-2.36 0-4.26.311-4.24.701l.4 12.8c.02.4 1.95.721 4.35.721h77.8c2.39 0 4.28-.321 4.24-.721l-1.49-12.8c-.05-.39-1.99-.701-4.35-.701zm95.9 0c-2.36 0-4.22.311-4.17.701l1.62 12.8c.05.4 2.02.721 4.42.721h77.8c2.39 0 4.25-.321 4.17-.721l-2.71-12.8c-.08-.39-2.05-.701-4.42-.701zm96 0c-2.36 0-4.19.311-4.1.701l2.84 12.8c.09.4 2.09.721 4.49.721h77.8c2.4 0 4.23-.321 4.11-.721l-3.93-12.8c-.12-.39-2.12-.701-4.48-.701zm96 0c-2.36 0-4.17.311-4.04.701l4.06 12.8c.13.4 2.16.721 4.55.721h77.8c2.4 0 4.2-.321 4.04-.721l-5.15-12.8c-.16-.39-2.19-.701-4.55-.701zm96 0c-2.36 0-4.13.311-3.97.701l5.28 12.8c.17.4 2.23.721 4.62.721h218c2.39 0 4.12-.321 3.86-.721l-8.13-12.8c-.24-.39-2.35-.701-4.71-.701zm235 0c-2.36 0-4.06.311-3.81.701l8.27 12.8c.25.4 2.39.721 4.79.721h67c2.4 0 4.09-.321 3.81-.721l-9.22-12.8c-.28-.39-2.4-.701-4.77-.701zm-1387 16c-2.4 0-4.56.32-4.85.73l-9.51 13.2c-.296.42 1.43.75 3.86.75h79.1c2.43 0 4.61-.33 4.87-.75l8.39-13.2c.255-.41-1.47-.73-3.87-.73zm97.5 0c-2.4 0-4.53.32-4.79.73l-8.25 13.2c-.257.42 1.5.75 3.93.75h79.1c2.44 0 4.58-.33 4.8-.75l7.13-13.2c.22-.41-1.54-.73-3.94-.73zm97.5 0c-2.4 0-4.51.32-4.72.73l-6.99 13.2c-.22.42 1.56.75 4 .75h79.1c2.44 0 4.54-.33 4.73-.75l5.87-13.2c.18-.41-1.61-.73-4.01-.73zm97.5 0c-2.4 0-4.48.32-4.65.73l-5.74 13.2c-.17.42 1.64.75 4.08.75h79.1c2.43 0 4.51-.33 4.65-.75l4.62-13.2c.14-.41-1.68-.73-4.08-.73zm97.5 0c-2.4 0-4.45.32-4.58.73l-4.48 13.2c-.14.42 1.71.75 4.15.75h530c2.43 0 4.33-.33 4.26-.75l-2.38-13.2c-.07-.41-2.06-.73-4.46-.73zm542 0c-2.4 0-4.27.32-4.19.73l2.52 13.2c.07.42 2.1.75 4.53.75h79.1c2.43 0 4.3-.33 4.19-.75l-3.64-13.2c-.11-.41-2.13-.73-4.53-.73zm97.5 0c-2.4 0-4.24.32-4.12.73l3.77 13.2c.12.42 2.18.75 4.61.75h79.1c2.44 0 4.28-.33 4.12-.75l-4.89-13.2c-.15-.41-2.2-.73-4.6-.73zm97.5 0c-2.4 0-4.21.32-4.05.73l5.03 13.2c.16.42 2.25.75 4.68.75h79.1c2.44 0 4.24-.33 4.05-.75l-6.15-13.2c-.19-.41-2.27-.73-4.67-.73zm184 0c-2.4 0-4.15.32-3.92.73l2.75 4.91c.23.41 2.36.74 4.77.74h67.6c2.41 0 4.15-.33 3.89-.74l-3.12-4.91c-.26-.41-2.39-.73-4.8-.73zm-82.7 8.21c-2.42 0-4.21.33-4.02.74l2.38 4.99c.2.42 2.31.75 4.75.75h68.1c2.43 0 4.21-.33 3.98-.75l-2.75-4.99c-.22-.41-2.35-.74-4.77-.74zm87.3 0c-2.42 0-4.18.33-3.95.74l2.8 4.99c.23.42 2.38.75 4.81.75h68.1c2.43 0 4.18-.33 3.92-.75l-3.17-4.99c-.26-.41-2.42-.74-4.84-.74zm87.3 0c-2.42 0-4.16.33-3.9.74l3.23 4.99c.26.42 2.44.75 4.87.75h68.1c2.44 0 4.16-.33 3.86-.75l-3.6-4.99c-.29-.41-2.47-.74-4.89-.74z"
       fill="url(#radialGradient10892)"
       style="paint-order:stroke fill markers"
       id="path124" />
    <path
       d="m1617 970c-.31.0955-.513.202-.438.322l3.27 5.07c.23.35 2.23.629 4.48.629h63c2.25 0 3.86-.279 3.61-.629l-.477-.662c-.6.172-1.7.291-3.13.291h-63c-2.25 0-4.25-.279-4.48-.629zm-1224 .002-2.79 4.39c-.224.35-2.22.629-4.47.629h-73.2c-1.43 0-2.53-.12-3.13-.291l-.477.662c-.254.35 1.35.629 3.61.629h73.2c2.25 0 4.25-.279 4.47-.629l3.22-5.07c.076-.12-.125-.225-.432-.32zm1143 .0176c-.275.0912-.455.19-.391.303l2.84 5.07c.2.35 2.17.629 4.42.629h63c2.25 0 3.89-.279 3.66-.629l-.432-.682c-.593.182-1.75.311-3.23.311h-63c-2.25 0-4.22-.279-4.42-.629zm-1062 .002-2.4 4.37c-.19.35-2.16.629-4.42.629h-63c-1.49 0-2.65-.128-3.24-.312l-.426.684c-.22.35 1.41.629 3.67.629h63c2.26 0 4.23-.279 4.42-.629l2.79-5.07c.0602-.111-.116-.211-.385-.301zm981 .0176c-.239.0859-.389.18-.342.283l2.42 5.07c.16.35 2.11.629 4.37.629h63c2.26 0 3.91-.279 3.72-.629l-.385-.701c-.582.194-1.79.33-3.33.33h-63c-2.26 0-4.21-.279-4.37-.629zm-900 .002-2.03 4.35c-.16.35-2.11.629-4.36.629h-63c-1.54 0-2.76-.137-3.34-.332l-.379.703c-.19.35 1.47.629 3.72.629h63c2.25 0 4.2-.279 4.36-.629l2.36-5.07c.05-.103-.0975-.196-.334-.281zm819 .0176c-.207.0807-.325.169-.287.264l1.98 5.07c.14.35 2.06.629 4.32.629h63c2.25 0 3.93-.279 3.77-.629l-.336-.721c-.571.206-1.84.35-3.43.35h-63c-2.26 0-4.18-.279-4.32-.629zm-738 .004-1.65 4.33c-.14.35-2.06.629-4.31.629h-63c-1.6 0-2.88-.144-3.45-.352l-.33.723c-.16.35 1.53.629 3.78.629h63c2.25 0 4.17-.279 4.31-.629l1.93-5.07c.0348-.0938-.0793-.18-.281-.26zm657 .0195c-.172.0741-.259.155-.234.24l1.56 5.07c.11.35 2.01.629 4.26.629h63c2.25 0 3.96-.279 3.82-.629l-.281-.738c-.556.217-1.89.367-3.54.367h-63c-2.25 0-4.15-.279-4.26-.629zm-576 .002-1.27 4.31c-.1.35-2 .629-4.25.629h-63c-1.66 0-3.01-.152-3.56-.371l-.273.742c-.13.35 1.57.629 3.83.629h63c2.25 0 4.15-.279 4.25-.629l1.5-5.07c.0266-.0845-.0581-.165-.227-.238zm496 .0391c-.12.0629-.194.129-.178.199l1.12 5.07c.08.35 1.96.629 4.21.629h63c2.25 0 3.98-.279 3.88-.629l-.226-.766c-.53.232-1.94.395-3.65.395h-63c-2.25 0-4.13-.279-4.21-.629zm-415 .008-.9 4.26c-.08.35-1.95.629-4.21.629h-63c-1.73 0-3.15-.164-3.67-.398l-.221.77c-.1.35 1.63.629 3.89.629h63c2.26 0 4.13-.279 4.21-.629l1.07-5.07c.0135-.0675-.0583-.131-.17-.191zm334 .0352c-.075.0502-.125.102-.117.156l.701 5.07c.05.35 1.9.629 4.15.629h63c2.26 0 4.01-.279 3.93-.629l-.17-.807c-.47.253-1.94.436-3.76.436h-63c-2.25 0-4.1-.279-4.15-.629zm-253 .006-.533 4.22c-.05.35-1.9.629-4.15.629h-63c-1.83 0-3.31-.185-3.78-.441l-.164.812c-.07.35 1.69.629 3.94.629h63c2.25 0 4.1-.279 4.15-.629l.641-5.07c.007-.0523-.038-.102-.107-.15zm172 .0664c-.022.0278-.051.0551-.049.084l.272 5.07c.01.35 1.84.629 4.1.629h63c2.25 0 4.03-.279 3.98-.629l-.108-.85c-.397.276-1.96.479-3.87.479h-63c-2.26 0-4.09-.279-4.1-.629zm-91 .0176-.18 4.14c-.01.35-1.84.629-4.09.629h-63c-1.93 0-3.5-.205-3.89-.484l-.0996.855c-.04.35 1.74.629 3.99.629h63c2.25 0 4.08-.279 4.09-.629l.221-5.07c.00065-.0229-.0266-.0441-.041-.0664zm10 4.19-.0293.951c-.01.35 1.8.629 4.05.629h63c2.25 0 4.05-.279 4.04-.629l-.041-.934c-.207.318-1.9.562-4 .562h-63c-2.14 0-3.87-.254-4.02-.58zm-612 3.49-7.34 11c-.242.36-2.28.65-4.57.65h-43.3c-1.42 0-2.58-.112-3.2-.283l-.455.633c-.261.36 1.37.65 3.66.65h43.3c2.29 0 4.32-.29 4.57-.65l7.78-11.7c.0827-.123-.126-.232-.447-.33zm1264 .006c-.312.097-.515.204-.436.324l7.53 11.7c.24.36 2.27.65 4.56.65h64c2.29 0 3.92-.29 3.66-.65l-.455-.633c-.619.171-1.78.283-3.21.283h-64c-2.29 0-4.32-.29-4.56-.65zm-1173 .0176-6.27 11c-.21.36-2.22.65-4.51.65h-74.3c-1.5 0-2.66-.131-3.26-.318l-.438.668c-.239.36 1.41.65 3.7.65h74.3c2.29 0 4.3-.29 4.51-.65l6.67-11.7c.0645-.113-.118-.214-.396-.307zm1020 .0195c-.244.0876-.398.183-.348.287l5.69 11.7c.17.36 2.16.65 4.44.65h136c2.29 0 3.94-.29 3.71-.65l-.426-.672c-.596.19-1.77.322-3.28.322h-136c-2.28 0-4.27-.29-4.44-.65zm-928 .004-5.22 11c-.18.36-2.16.65-4.44.65h-74.3c-1.56 0-2.79-.139-3.37-.34l-.387.689c-.2.36 1.47.65 3.76.65h74.3c2.28 0 4.26-.29 4.44-.65l5.56-11.7c.047-.103-.103-.196-.342-.283zm836 .0176c-.207.0815-.325.171-.287.266l4.57 11.7c.14.36 2.1.65 4.38.65h74.3c2.28 0 3.99-.29 3.81-.65l-.338-.709c-.578.212-1.86.359-3.47.359h-74.3c-2.28 0-4.24-.29-4.38-.65zm-744 .002-4.16 10.9c-.14.36-2.1.65-4.38.65h-74.3c-1.62 0-2.91-.15-3.49-.363l-.332.713c-.17.36 1.54.65 3.82.65h74.3c2.28 0 4.24-.29 4.38-.65l4.44-11.7c.0376-.094-.0753-.183-.279-.264zm653 .0273c-.164.0732-.25.153-.227.236l3.46 11.7c.11.36 2.03.65 4.32.65h74.3c2.28 0 4.01-.29 3.87-.65l-.279-.732c-.56.225-1.92.383-3.59.383h-74.3c-2.29 0-4.21-.29-4.32-.65zm-561 .004-3.12 10.9c-.1.36-2.02.65-4.31.65h-74.3c-1.68 0-3.05-.158-3.61-.385l-.271.734c-.14.36 1.6.65 3.88.65h74.3c2.29 0 4.21-.29 4.31-.65l3.34-11.7c.0233-.0817-.0613-.16-.221-.232zm469 .043c-.108.0601-.177.124-.164.189l2.35 11.7c.07.36 1.97.65 4.26.65h74.3c2.28 0 4.04-.29 3.94-.65l-.219-.768c-.525.244-1.96.418-3.72.418h-74.3c-2.29 0-4.19-.29-4.26-.65zm-377 .008-2.07 10.9c-.07.36-1.96.65-4.25.65h-74.3c-1.77 0-3.21-.176-3.73-.422l-.213.771c-.1.36 1.66.65 3.94.65h74.3c2.29 0 4.18-.29 4.25-.65l2.23-11.7c.0108-.0632-.0562-.124-.156-.182zm286 .041c-.06.0452-.095.0926-.09.141l1.23 11.7c.04.36 1.91.65 4.2.65h74.3c2.29 0 4.08-.29 4.01-.65l-.156-.814c-.458.268-1.98.465-3.85.465h-74.3c-2.29 0-4.16-.29-4.2-.65zm-194 .004-1.03 10.8c-.03.36-1.9.65-4.19.65h-74.3c-1.89 0-3.42-.198-3.86-.469l-.146.818c-.07.36 1.72.65 4.01.65h74.3c2.29 0 4.16-.29 4.19-.65l1.11-11.7c.005-.0465-.026-.0929-.082-.137zm102 .121c-8e-4.005-.01.0104-.01.0156l.121 11.7c.01.36 1.85.65 4.14.65h74.3c2.29 0 4.1-.29 4.07-.65l-.082-.863c-.371.294-2 .514-3.99.514h-74.3c-2.29 0-4.13-.29-4.14-.65zm-10.2 10.7c0 .36-1.84.65-4.13.65h-74.3c-2 0-3.64-.223-4.01-.52l-.0742.869c-.03.36 1.79.65 4.08.65h74.3c2.29 0 4.13-.29 4.13-.65zm631 3.61c-.338.102-.501.222-.416.354l7.76 12c.25.38 2.31.68 4.63.68h65c2.33 0 3.98-.3 3.71-.68l-.443-.617c-.622.18-1.81.297-3.27.297h-65c-2.32 0-4.38-.3-4.63-.68zm-1242 .006-7.11 11.4c-.234.38-2.29.68-4.61.68h-85.9c-1.45 0-2.64-.116-3.26-.297l-.443.617c-.269.38 1.38.68 3.71.68h85.9c2.32 0 4.38-.3 4.61-.68l7.51-12c.0799-.129-.0813-.247-.408-.348zm93.1.0391-5.99 11.3c-.2.38-2.23.68-4.55.68h-75.5c-1.53 0-2.76-.131-3.38-.328l-.398.648c-.23.38 1.45.68 3.78.68h75.5c2.32 0 4.35-.3 4.55-.68l6.36-12c.0618-.114-.105-.216-.365-.309zm1035 0c-.261.0928-.427.194-.365.309l6.36 12c.2.38 2.23.68 4.55.68h96.4c2.32 0 4-.3 3.76-.68l-.408-.642c-.615.193-1.84.322-3.35.322h-96.4c-2.32 0-4.35-.3-4.55-.68zm-942 .0234-4.91 11.3c-.16.38-2.16.68-4.48.68h-75.4c-1.6 0-2.89-.143-3.49-.355l-.352.676c-.2.38 1.52.68 3.84.68h75.4c2.32 0 4.32-.3 4.48-.68l5.22-12c.045-.104-.0882-.198-.311-.285zm849 0c-.222.0868-.356.181-.31.285l5.22 12c.16.38 2.16.68 4.48.68h75.4c2.32 0 4.04-.3 3.84-.68l-.352-.676c-.598.212-1.89.355-3.49.355h-75.4c-2.32 0-4.32-.3-4.48-.68zm-756 .0215-3.82 11.3c-.13.38-2.1.68-4.42.68h-75.5c-1.68 0-3.03-.161-3.61-.392l-.303.713c-.15.38 1.59.68 3.91.68h75.5c2.32 0 4.29-.3 4.42-.68l4.07-12c.0331-.0943-.0612-.183-.25-.264zm663 0c-.189.0804-.283.169-.25.264l4.07 12c.13.38 2.1.68 4.42.68h75.5c2.32 0 4.06-.3 3.91-.68l-.303-.713c-.574.231-1.93.392-3.61.392h-75.5c-2.32 0-4.29-.3-4.42-.68zm-569 .0488-2.74 11.2c-.09.38-2.04.68-4.36.68h-75.4c-1.74 0-3.17-.171-3.73-.416l-.242.736c-.12.38 1.65.68 3.97.68h75.4c2.32 0 4.27-.3 4.36-.68l2.93-12c.0165-.0761-.0628-.147-.191-.215zm476 0c-.129.0675-.208.139-.191.215l2.93 12c.09.38 2.04.68 4.36.68h75.4c2.32 0 4.09-.3 3.97-.68l-.242-.736c-.554.245-1.99.416-3.73.416h-75.4c-2.32 0-4.27-.3-4.36-.68zm-383 .0469-1.67 11.2c-.05.38-1.97.68-4.29.68h-75.4c-1.85 0-3.36-.192-3.85-.463l-.182.783c-.09.38 1.71.68 4.03.68h75.4c2.32 0 4.24-.3 4.29-.68l1.79-12c.008-.0584-.044-.114-.123-.168zm290 0c-.079.0536-.131.11-.123.168l1.79 12c.05.38 1.97.68 4.29.68h75.4c2.32 0 4.12-.3 4.03-.68l-.182-.783c-.491.271-2 .463-3.85.463h-75.4c-2.32 0-4.24-.3-4.29-.68zm-197 .082-.59 11.1c-.02.38-1.9.68-4.23.68h-75.4c-1.96 0-3.57-.215-3.98-.512l-.113.832c-.06.38 1.77.68 4.09.68h75.4c2.33 0 4.21-.3 4.23-.68l.639-12c.002-.0295-.0276-.0575-.0488-.0859zm104 0c-.021.0284-.05.0564-.049.0859l.639 12c.02.38 1.9.68 4.23.68h75.4c2.32 0 4.15-.3 4.09-.68l-.113-.832c-.413.296-2.01.512-3.98.512h-75.4c-2.33 0-4.21-.3-4.23-.68zm-93.6 11.2-.0391.932c-.01.38 1.84.68 4.17.68h75.4c2.33 0 4.18-.3 4.17-.68l-.039-.932c-.2.347-1.94.611-4.13.611h-75.4c-2.19 0-3.93-.265-4.13-.611zm683 3.63c-.338.105-.501.229-.412.363l8.01 12.4c.25.38 2.35.699 4.71.699h66c2.36 0 4.03-.319 3.76-.699l-.441-.613c-.628.188-1.84.312-3.32.312h-66c-2.36 0-4.46-.319-4.71-.699zm-1230 .018-6.97 11.8c-.229.38-2.31.699-4.67.699h-119c-1.48 0-2.69-.126-3.31-.312l-.441.613c-.278.38 1.4.699 3.76.699h119c2.36 0 4.44-.319 4.67-.699l7.36-12.4c.0747-.127-.0811-.245-.389-.346zm105 .033-5.71 11.7c-.19.38-2.24.699-4.6.699h-87.3c-1.58 0-2.86-.144-3.47-.354l-.381.654c-.225.38 1.49.699 3.85.699h87.3c2.36 0 4.41-.319 4.6-.699l6.04-12.4c.054-.114-.0802-.219-.334-.312zm957 .012c-.238.091-.384.19-.332.301l5.91 12.4c.18.38 2.23.699 4.59.699h151c2.36 0 4.06-.319 3.81-.699l-.404-.637c-.62.2-1.87.336-3.41.336h-151c-2.36 0-4.41-.319-4.59-.699zm-862 .019-4.57 11.7c-.16.38-2.18.699-4.54.699h-76.6c-1.66 0-3.01-.16-3.6-.387l-.328.688c-.18.38 1.57.699 3.93.699h76.6c2.36 0 4.38-.319 4.54-.699l4.85-12.4c.0402-.102-.0739-.195-.281-.281zm767 0c-.203.085-.312.177-.275.277l4.73 12.4c.15.38 2.16.699 4.52.699h76.6c2.36 0 4.11-.319 3.93-.699l-.322-.689c-.593.228-1.94.389-3.61.389h-76.6c-2.36 0-4.37-.319-4.52-.699zm-673 .029-3.45 11.7c-.12.38-2.11.699-4.47.699h-76.6c-1.74 0-3.15-.175-3.72-.418l-.273.719c-.15.38 1.63.699 3.99.699h76.6c2.36 0 4.35-.319 4.47-.699l3.67-12.4c.0257-.089-.0599-.171-.223-.248zm578 .01c-.155.075-.24.156-.217.242l3.55 12.4c.11.38 2.1.699 4.46.699h76.6c2.35 0 4.14-.319 3.99-.699l-.266-.721c-.568.245-1.99.42-3.72.42h-76.6c-2.36 0-4.35-.319-4.46-.699zm-484 .043-2.34 11.6c-.07.38-2.03.699-4.39.699h-76.6c-1.83 0-3.31-.193-3.84-.455l-.217.756c-.11.38 1.7.699 4.06.699h76.6c2.36 0 4.32-.319 4.39-.699l2.5-12.4c.0148-.07-.0556-.136-.162-.199zm389 0c-.1.062-.167.127-.152.195l2.36 12.4c.07.38 2.03.699 4.39.699h76.6c2.36 0 4.17-.319 4.06-.699l-.209-.76c-.525.265-2.01.459-3.85.459h-76.6c-2.36 0-4.32-.319-4.39-.699zm-294 .045-1.23 11.6c-.04.38-1.97.699-4.33.699h-76.6c-1.93 0-3.5-.218-3.96-.506l-.154.807c-.07.38 1.77.699 4.12.699h76.6c2.36 0 4.29-.319 4.33-.699l1.32-12.4c.005-.052-.0294-.102-.0899-.15zm200 .01c-.057.047-.087.095-.082.144l1.18 12.4c.04.38 1.96.699 4.32.699h76.6c2.36 0 4.2-.319 4.13-.699l-.146-.81c-.455.29-2.03.51-3.98.51h-76.6c-2.36 0-4.28-.319-4.32-.699zm-105 .127-.129 11.4c0 .38-1.9.699-4.26.699h-76.6c-2.05 0-3.73-.242-4.11-.555l-.082.855c-.04.38 1.83.699 4.19.699h76.6c2.36 0 4.26-.319 4.26-.699l.141-12.4c0-.01-.0107-.011-.0117-.018zm10.5 11.4v1c0 .38 1.9.699 4.26.699h76.6c2.35 0 4.23-.319 4.19-.699l-.072-.861c-.365.316-2.06.561-4.12.561h-76.6c-2.36 0-4.26-.319-4.26-.699zm651 3.78c-.334.107-.496.233-.408.369l8.27 12.8c.25.4 2.39.721 4.79.721h67c2.4 0 4.09-.321 3.81-.721l-.434-.602c-.632.195-1.86.322-3.38.322h-67c-2.4 0-4.54-.321-4.79-.721zm-1206 .031-6.69 12.1c-.22.4-2.32.721-4.72.721h-164c-1.51 0-2.74-.128-3.38-.322l-.432.602c-.288.4 1.41.721 3.81.721h164c2.4 0 4.5-.321 4.72-.721l7.05-12.8c.0669-.124-.081-.237-.365-.338zm96.1.027-5.52 12.1c-.18.4-2.26.721-4.65.721h-77.8c-1.64 0-2.97-.153-3.58-.377l-.354.656c-.22.4 1.54.721 3.93.721h77.8c2.39 0 4.47-.321 4.65-.721l5.83-12.8c.052-.113-.0744-.217-.314-.31zm875 .014c-.22.09-.333.19-.289.297l5.28 12.8c.17.4 2.23.721 4.62.721h218c2.39 0 4.12-.321 3.86-.721l-.398-.627c-.624.208-1.89.348-3.46.348h-218c-2.39 0-4.45-.321-4.62-.721zm-779 .018-4.35 12.1c-.14.4-2.19.721-4.58.721h-77.8c-1.72 0-3.1-.166-3.7-.406l-.305.686c-.18.4 1.6.721 4 .721h77.8c2.39 0 4.44-.321 4.58-.721l4.61-12.8c.036-.1-.0639-.193-.26-.279zm683 .014c-.177.082-.264.171-.232.266l4.06 12.8c.13.4 2.16.721 4.55.721h77.8c2.4 0 4.2-.321 4.04-.721l-.281-.699c-.583.248-2.01.42-3.76.42h-77.8c-2.39 0-4.42-.321-4.55-.721zm-587 .029-3.19 12c-.1.4-2.12.721-4.51.721h-77.9c-1.79 0-3.25-.179-3.82-.436l-.25.715c-.14.4 1.67.721 4.07.721h77.9c2.39 0 4.41-.321 4.51-.721l3.39-12.8c.0214-.084-.0615-.162-.203-.236zm491 .021c-.117.068-.191.139-.174.215l2.84 12.8c.09.4 2.09.721 4.49.721h77.8c2.4 0 4.23-.321 4.11-.721l-.227-.736c-.549.268-2.04.457-3.88.457h-77.8c-2.4 0-4.4-.321-4.49-.721zm-395 .029-2.03 12c-.07.4-2.05.721-4.45.721h-77.8c-1.9 0-3.43-.201-3.95-.482l-.193.762c-.11.4 1.74.721 4.14.721h77.8c2.4 0 4.38-.321 4.45-.721l2.17-12.8c.01-.065-.0498-.126-.139-.186zm299 .022c-.069.053-.113.107-.106.164l1.62 12.8c.05.4 2.02.721 4.42.721h77.8c2.39 0 4.25-.321 4.17-.721l-.166-.787c-.482.295-2.06.508-4 .508h-77.8c-2.4 0-4.37-.321-4.42-.721zm-203 .041-.887 11.9c-.03.4-1.98.721-4.38.721h-77.8c-2.01 0-3.64-.228-4.08-.537l-.131.816c-.06.4 1.82.721 4.21.721h77.8c2.4 0 4.35-.321 4.38-.721l.951-12.8c.003-.042-.0254-.083-.0644-.123zm107 .07c-.01.018-.03.035-.029.053l.4 12.8c.02.4 1.95.721 4.35.721h77.8c2.39 0 4.28-.321 4.24-.721l-.098-.84c-.402.322-2.08.561-4.14.561h-77.8c-2.4 0-4.33-.321-4.35-.721zm-10.4 11.9c-.1.383-1.96.686-4.29.686h-77.9c-2.18 0-3.94-.266-4.22-.615l-.0566.895c-.02.4 1.89.721 4.28.721h77.9c2.4 0 4.32-.321 4.31-.721zm-672 3.85-8 12.6c-.262.42-2.43.75-4.87.75h-79.1c-1.55 0-2.8-.133-3.44-.338l-.424.588c-.296.42 1.43.75 3.86.75h79.1c2.43 0 4.61-.33 4.87-.75l8.39-13.2c.0871-.14-.0713-.269-.395-.379zm1226 .022c-.287.105-.433.226-.359.357l2.75 4.91c.23.41 2.36.74 4.77.74h67.6c2.41 0 4.15-.33 3.89-.74l-.394-.619c-.626.215-1.91.359-3.49.359h-67.6c-2.41 0-4.54-.33-4.77-.74zm-1128 .01-6.78 12.6c-.22.42-2.36.75-4.8.75h-79.1c-1.62 0-2.92-.146-3.54-.367l-.387.617c-.257.42 1.5.75 3.93.75h79.1c2.44 0 4.58-.33 4.8-.75l7.13-13.2c.0687-.128-.0743-.246-.352-.35zm97.6.029-5.57 12.5c-.19.42-2.29.75-4.73.75h-79.1c-1.69 0-3.05-.159-3.66-.396l-.342.646c-.22.42 1.56.75 4 .75h79.1c2.44 0 4.54-.33 4.73-.75l5.87-13.2c.0509-.116-.0694-.224-.303-.32zm846 .02c-.206.091-.308.193-.266.301l5.03 13.2c.16.42 2.25.75 4.68.75h79.1c2.44 0 4.24-.33 4.05-.75l-.31-.668c-.599.249-2 .418-3.74.418h-79.1c-2.43 0-4.52-.33-4.68-.75zm-748 .012-4.37 12.5c-.14.42-2.22.75-4.65.75h-79.1c-1.77 0-3.19-.175-3.79-.43l-.295.68c-.17.42 1.64.75 4.08.75h79.1c2.43 0 4.51-.33 4.65-.75l4.62-13.2c.0354-.104-.0554-.201-.248-.289zm651 .031c-.153.08-.238.166-.211.258l3.77 13.2c.12.42 2.18.75 4.61.75h79.1c2.44 0 4.28-.33 4.12-.75l-.258-.695c-.579.265-2.05.445-3.86.445h-79.1c-2.43 0-4.49-.33-4.61-.75zm-97.6.053c-.1.066-.166.132-.152.205l2.52 13.2c.07.42 2.1.75 4.53.75h79.1c2.43 0 4.3-.33 4.19-.75l-.205-.744c-.531.29-2.08.494-3.98.494h-79.1c-2.43 0-4.46-.33-4.53-.75zm472 8.04c-.33.112-.49.242-.4.383l3.23 4.99c.26.42 2.44.75 4.87.75h68.1c2.44 0 4.16-.33 3.86-.75l-.424-.588c-.637.204-1.89.338-3.44.338h-68.1c-2.43 0-4.61-.33-4.87-.75zm-87.4.025c-.288.106-.435.227-.361.357l2.8 4.99c.23.42 2.38.75 4.81.75h68.1c2.43 0 4.18-.33 3.92-.75l-.391-.615c-.628.219-1.92.365-3.53.365h-68.1c-2.43 0-4.58-.33-4.81-.75zm-87.5.027c-.247.1-.376.211-.32.33l2.38 4.99c.2.42 2.31.75 4.75.75h68.1c2.43 0 4.21-.33 3.98-.75l-.354-.641c-.616.233-1.96.391-3.63.391h-68.1c-2.44 0-4.55-.33-4.75-.75zm-305 4.52c-.461.318-2.1.547-4.12.547h-530c-1.84 0-3.34-.187-3.91-.459l-.24.709c-.14.42 1.71.75 4.15.75h530c2.43 0 4.33-.33 4.26-.75z"
       fill="#fff"
       opacity=".1"
       style="paint-order:stroke fill markers"
       id="path126" />
  </g>
  <path
     d="m628 1062h745c2.46 0 4.55.34 4.71.76l24.1 67.1c.17.48-1.8.86-4.42.86h-794c-2.62 0-4.59-.38-4.42-.86l24.1-67.1c.16-.42 2.25-.76 4.71-.76z"
     fill="#232021"
     stroke-linecap="round"
     stroke-linejoin="round"
     stroke-width="3.78"
     style="paint-order:stroke fill markers"
     id="path130" />
  <path
     d="m628 1064h745c2.46 0 4.55.34 4.71.76l24.1 67.1c.17.48-1.8.86-4.42.86h-794c-2.62 0-4.59-.38-4.42-.86l24.1-67.1c.16-.42 2.25-.76 4.71-.76z"
     fill="#686067"
     stroke-linecap="round"
     stroke-linejoin="round"
     stroke-width="3.78"
     style="paint-order:stroke fill markers"
     id="path132" />
  <path
     d="m628 1063h745c2.46 0 4.55.34 4.71.76l24.1 67.1c.17.48-1.8.86-4.42.86h-794c-2.62 0-4.59-.38-4.42-.86l24.1-67.1c.16-.42 2.25-.76 4.71-.76z"
     fill="#343031"
     stroke-linecap="round"
     stroke-linejoin="round"
     stroke-width="3.78"
     style="paint-order:stroke fill markers"
     id="path134" />
  <path
     d="m200 960c-22.2 0-42.5 2.76-45.5 6.21l-147 165c-4.26 4.79 13.5 8.68 39.9 8.68h1905c26.4 0 44.2-3.89 39.9-8.68l-147-165c-3.07-3.45-23.4-6.21-45.5-6.21zm121 6.21h1359c13.9 0 26.5 1.75 28.1 3.92l60.9 82.2c1.91 2.58-8.84 4.67-24.1 4.67h-1489c-15.3 0-26-2.09-24.1-4.67l60.9-82.2c1.62-2.18 14.1-3.92 28.1-3.92zm-3.25 3.14c-2.24 0-4.24.281-4.49.631l-3.65 5.07c-.254.35 1.35.629 3.61.629h73.2c2.25 0 4.25-.279 4.47-.629l3.22-5.07c.222-.35-1.4-.631-3.64-.631zm90.9 0c-2.24 0-4.22.281-4.43.631l-3.16 5.07c-.22.35 1.41.629 3.67.629h63c2.26 0 4.23-.279 4.42-.629l2.79-5.07c.19-.35-1.46-.631-3.69-.631zm80.8 0c-2.23 0-4.19.281-4.38.631l-2.73 5.07c-.19.35 1.47.629 3.72.629h63c2.25 0 4.2-.279 4.36-.629l2.36-5.07c.17-.35-1.5-.631-3.74-.631zm80.8 0c-2.24 0-4.17.281-4.33.631l-2.31 5.07c-.16.35 1.53.629 3.78.629h63c2.25 0 4.17-.279 4.31-.629l1.93-5.07c.13-.35-1.56-.631-3.8-.631zm80.8 0c-2.24 0-4.15.281-4.28.631l-1.87 5.07c-.13.35 1.57.629 3.83.629h63c2.25 0 4.15-.279 4.25-.629l1.5-5.07c.11-.35-1.61-.631-3.85-.631zm80.8 0c-2.24 0-4.12.281-4.22.631l-1.45 5.07c-.1.35 1.63.629 3.89.629h63c2.26 0 4.13-.279 4.21-.629l1.07-5.07c.07-.35-1.67-.631-3.91-.631zm80.8 0c-2.24 0-4.1.281-4.17.631l-1.02 5.07c-.07.35 1.69.629 3.94.629h63c2.25 0 4.1-.279 4.15-.629l.641-5.07c.05-.35-1.72-.631-3.96-.631zm80.8 0c-2.24 0-4.07.281-4.11.631l-.59 5.07c-.04.35 1.74.629 3.99.629h63c2.25 0 4.08-.279 4.09-.629l.221-5.07c.01-.35-1.78-.631-4.02-.631zm80.8 0c-2.24 0-4.05.281-4.06.631l-.16 5.07c-.01.35 1.8.629 4.05.629h63c2.25 0 4.05-.279 4.04-.629l-.221-5.07c-.01-.35-1.83-.631-4.06-.631zm80.8 0c-2.23 0-4.02.281-4 .631l.272 5.07c.01.35 1.84.629 4.1.629h63c2.25 0 4.03-.279 3.98-.629l-.641-5.07c-.05-.35-1.88-.631-4.12-.631zm80.8 0c-2.24 0-4.01.281-3.96.631l.701 5.07c.05.35 1.9.629 4.15.629h63c2.26 0 4.01-.279 3.93-.629l-1.07-5.07c-.07-.35-1.93-.631-4.17-.631zm80.8 0c-2.24 0-3.98.281-3.9.631l1.12 5.07c.08.35 1.96.629 4.21.629h63c2.25 0 3.98-.279 3.88-.629l-1.5-5.07c-.11-.35-1.99-.631-4.23-.631zm80.8 0c-2.24 0-3.95.281-3.85.631l1.56 5.07c.11.35 2.01.629 4.26.629h63c2.25 0 3.96-.279 3.82-.629l-1.93-5.07c-.13-.35-2.04-.631-4.28-.631zm80.8 0c-2.24 0-3.93.281-3.79.631l1.98 5.07c.14.35 2.06.629 4.32.629h63c2.25 0 3.93-.279 3.77-.629l-2.36-5.07c-.17-.35-2.1-.631-4.34-.631zm80.8 0c-2.24 0-3.9.281-3.74.631l2.42 5.07c.16.35 2.11.629 4.37.629h63c2.26 0 3.91-.279 3.72-.629l-2.79-5.07c-.19-.35-2.15-.631-4.39-.631zm80.8 0c-2.24 0-3.88.281-3.68.631l2.84 5.07c.2.35 2.17.629 4.42.629h63c2.25 0 3.89-.279 3.66-.629l-3.21-5.07c-.23-.35-2.21-.631-4.44-.631zm80.8 0c-2.23 0-3.85.281-3.63.631l3.27 5.07c.23.35 2.23.629 4.48.629h63c2.25 0 3.86-.279 3.61-.629l-3.65-5.07c-.25-.35-2.25-.631-4.49-.631zm-1308 7.93c-2.26 0-4.28.291-4.54.641l-8.4 11.7c-.261.36 1.37.65 3.66.65h43.3c2.29 0 4.32-.29 4.57-.65l7.78-11.7c.236-.35-1.39-.641-3.65-.641zm61.1 0c-2.26 0-4.26.291-4.49.641l-7.66 11.7c-.239.36 1.41.65 3.7.65h74.3c2.29 0 4.3-.29 4.51-.65l6.67-11.7c.2-.35-1.45-.641-3.71-.641zm91.6 0c-2.26 0-4.23.291-4.43.641l-6.55 11.7c-.2.36 1.47.65 3.76.65h74.3c2.28 0 4.26-.29 4.44-.65l5.56-11.7c.16-.35-1.52-.641-3.77-.641zm91.6 0c-2.26 0-4.21.291-4.37.641l-5.44 11.7c-.17.36 1.54.65 3.82.65h74.3c2.28 0 4.24-.29 4.38-.65l4.44-11.7c.14-.35-1.57-.641-3.83-.641zm91.6 0c-2.25 0-4.18.291-4.31.641l-4.32 11.7c-.14.36 1.6.65 3.88.65h74.3c2.29 0 4.21-.29 4.31-.65l3.34-11.7c.1-.35-1.63-.641-3.89-.641zm91.7 0c-2.26 0-4.15.291-4.25.641l-3.21 11.7c-.1.36 1.66.65 3.94.65h74.3c2.29 0 4.18-.29 4.25-.65l2.23-11.7c.06-.35-1.7-.641-3.95-.641zm91.6 0c-2.25 0-4.12.291-4.18.641l-2.1 11.7c-.07.36 1.72.65 4.01.65h74.3c2.29 0 4.16-.29 4.19-.65l1.11-11.7c.04-.35-1.75-.641-4.01-.641zm91.6 0c-2.26 0-4.1.291-4.13.641l-.99 11.7c-.03.36 1.79.65 4.08.65h74.3c2.29 0 4.13-.29 4.13-.65v-11.7c0-.35-1.82-.641-4.07-.641zm91.7 0c-2.26 0-4.07.291-4.07.641l.121 11.7c.01.36 1.85.65 4.14.65h74.3c2.29 0 4.1-.29 4.07-.65l-1.11-11.7c-.04-.35-1.88-.641-4.14-.641zm91.6 0c-2.25 0-4.04.291-4 .641l1.23 11.7c.04.36 1.91.65 4.2.65h74.3c2.29 0 4.08-.29 4.01-.65l-2.23-11.7c-.06-.35-1.93-.641-4.19-.641zm91.7 0c-2.26 0-4.02.291-3.95.641l2.35 11.7c.07.36 1.97.65 4.26.65h74.3c2.28 0 4.04-.29 3.94-.65l-3.34-11.7c-.1-.35-2-.641-4.26-.641zm91.6 0c-2.25 0-3.98.291-3.88.641l3.46 11.7c.11.36 2.03.65 4.32.65h74.3c2.28 0 4.01-.29 3.87-.65l-4.44-11.7c-.14-.35-2.06-.641-4.32-.641zm91.7 0c-2.26 0-3.96.291-3.82.641l4.57 11.7c.14.36 2.1.65 4.38.65h74.3c2.28 0 3.99-.29 3.81-.65l-5.56-11.7c-.16-.35-2.12-.641-4.37-.641zm91.7 0c-2.26 0-3.94.291-3.77.641l5.69 11.7c.17.36 2.16.65 4.44.65h136c2.29 0 3.94-.29 3.71-.65l-7.41-11.7c-.23-.35-2.22-.641-4.48-.641zm153 0c-2.26 0-3.89.291-3.66.641l7.53 11.7c.24.36 2.27.65 4.56.65h64c2.29 0 3.92-.29 3.66-.65l-8.4-11.7c-.26-.35-2.28-.641-4.54-.641zm-1324 14.6c-2.29 0-4.35.29-4.61.66l-8.66 12c-.269.38 1.38.68 3.71.68h85.9c2.32 0 4.38-.3 4.61-.68l7.51-12c.229-.37-1.43-.66-3.72-.66zm103 0c-2.29 0-4.32.29-4.54.66l-7.39 12c-.23.38 1.45.68 3.78.68h75.5c2.32 0 4.35-.3 4.55-.68l6.36-12c.2-.37-1.49-.66-3.78-.66zm93 0c-2.29 0-4.28.29-4.47.66l-6.24 12c-.2.38 1.52.68 3.84.68h75.4c2.32 0 4.32-.3 4.48-.68l5.22-12c.16-.37-1.55-.66-3.84-.66zm93 0c-2.29 0-4.26.29-4.41.66l-5.1 12c-.15.38 1.59.68 3.91.68h75.5c2.32 0 4.29-.3 4.42-.68l4.07-12c.13-.37-1.62-.66-3.91-.66zm93 0c-2.29 0-4.23.29-4.35.66l-3.95 12c-.12.38 1.65.68 3.97.68h75.4c2.32 0 4.27-.3 4.36-.68l2.93-12c.08-.37-1.69-.66-3.98-.66zm93 0c-2.29 0-4.2.29-4.29.66l-2.8 12c-.09.38 1.71.68 4.03.68h75.4c2.32 0 4.24-.3 4.29-.68l1.79-12c.05-.37-1.75-.66-4.04-.66zm93 0c-2.29 0-4.18.29-4.23.66l-1.65 12c-.06.38 1.77.68 4.09.68h75.4c2.33 0 4.21-.3 4.23-.68l.639-12c.02-.37-1.81-.66-4.1-.66zm93 0c-2.29 0-4.14.29-4.16.66l-.51 12c-.01.38 1.84.68 4.17.68h75.4c2.33 0 4.18-.3 4.17-.68l-.51-12c-.02-.37-1.87-.66-4.16-.66zm93 0c-2.29 0-4.12.29-4.1.66l.639 12c.02.38 1.9.68 4.23.68h75.4c2.32 0 4.15-.3 4.09-.68l-1.65-12c-.05-.37-1.94-.66-4.23-.66zm93 0c-2.29 0-4.09.29-4.04.66l1.79 12c.05.38 1.97.68 4.29.68h75.4c2.32 0 4.12-.3 4.03-.68l-2.8-12c-.09-.37-2-.66-4.29-.66zm93 0c-2.29 0-4.06.29-3.98.66l2.93 12c.09.38 2.04.68 4.36.68h75.4c2.32 0 4.09-.3 3.97-.68l-3.95-12c-.12-.37-2.06-.66-4.35-.66zm93 0c-2.29 0-4.04.29-3.91.66l4.07 12c.13.38 2.1.68 4.42.68h75.5c2.32 0 4.06-.3 3.91-.68l-5.1-12c-.15-.37-2.12-.66-4.41-.66zm93 0c-2.29 0-4 .29-3.84.66l5.22 12c.16.38 2.16.68 4.48.68h75.4c2.32 0 4.04-.3 3.84-.68l-6.24-12c-.19-.37-2.18-.66-4.47-.66zm93 0c-2.29 0-3.98.29-3.78.66l6.36 12c.2.38 2.23.68 4.55.68h96.4c2.32 0 4-.3 3.76-.68l-7.64-12c-.23-.37-2.26-.66-4.55-.66zm114 0c-2.3 0-3.95.29-3.71.66l7.76 12c.25.38 2.31.68 4.63.68h65c2.33 0 3.98-.3 3.71-.68l-8.66-12c-.26-.37-2.32-.66-4.61-.66zm-1344 15.1c-2.33 0-4.42.3-4.69.68l-8.93 12.4c-.278.38 1.4.699 3.76.699h119c2.36 0 4.44-.319 4.67-.699l7.36-12.4c.223-.38-1.47-.68-3.8-.68zm136 0c-2.33 0-4.37.3-4.59.68l-7.22 12.4c-.225.38 1.49.699 3.85.699h87.3c2.36 0 4.41-.319 4.6-.699l6.04-12.4c.18-.38-1.54-.68-3.87-.68zm105 0c-2.32 0-4.34.3-4.52.68l-5.91 12.4c-.18.38 1.57.699 3.93.699h76.6c2.36 0 4.38-.319 4.54-.699l4.85-12.4c.15-.38-1.6-.68-3.93-.68zm94.5 0c-2.33 0-4.32.3-4.46.68l-4.73 12.4c-.15.38 1.63.699 3.99.699h76.6c2.36 0 4.35-.319 4.47-.699l3.67-12.4c.11-.38-1.67-.68-3.99-.68zm94.5 0c-2.33 0-4.29.3-4.39.68l-3.55 12.4c-.11.38 1.7.699 4.06.699h76.6c2.36 0 4.32-.319 4.39-.699l2.5-12.4c.08-.38-1.74-.68-4.06-.68zm94.5 0c-2.32 0-4.25.3-4.33.68l-2.36 12.4c-.07.38 1.77.699 4.12.699h76.6c2.36 0 4.29-.319 4.33-.699l1.32-12.4c.04-.38-1.8-.68-4.13-.68zm94.5 0c-2.33 0-4.23.3-4.27.68l-1.18 12.4c-.04.38 1.83.699 4.19.699h76.6c2.36 0 4.26-.319 4.26-.699l.141-12.4c0-.38-1.87-.68-4.2-.68zm94.5 0c-2.33 0-4.2.3-4.2.68v12.4c0 .38 1.9.699 4.26.699h76.6c2.35 0 4.23-.319 4.19-.699l-1.05-12.4c-.03-.38-1.93-.68-4.25-.68zm94.5 0c-2.32 0-4.17.3-4.13.68l1.18 12.4c.04.38 1.96.699 4.32.699h76.6c2.36 0 4.2-.319 4.13-.699l-2.23-12.4c-.07-.38-1.99-.68-4.32-.68zm94.5 0c-2.32 0-4.14.3-4.06.68l2.36 12.4c.07.38 2.03.699 4.39.699h76.6c2.36 0 4.17-.319 4.06-.699l-3.41-12.4c-.1-.38-2.06-.68-4.39-.68zm94.5 0c-2.33 0-4.11.3-4.01.68l3.55 12.4c.11.38 2.1.699 4.46.699h76.6c2.35 0 4.14-.319 3.99-.699l-4.59-12.4c-.14-.38-2.13-.68-4.45-.68zm94.5 0c-2.33 0-4.08.3-3.94.68l4.73 12.4c.15.38 2.16.699 4.52.699h76.6c2.36 0 4.11-.319 3.93-.699l-5.78-12.4c-.17-.38-2.18-.68-4.51-.68zm94.5 0c-2.32 0-4.05.3-3.87.68l5.91 12.4c.18.38 2.23.699 4.59.699h151c2.36 0 4.06-.319 3.81-.699l-7.88-12.4c-.24-.38-2.3-.68-4.63-.68zm168 0c-2.33 0-4.01.3-3.76.68l8.01 12.4c.25.38 2.35.699 4.71.699h66c2.36 0 4.03-.319 3.76-.699l-8.93-12.4c-.28-.38-2.37-.68-4.69-.68zm-1365 15.5c-2.36 0-4.49.311-4.77.701l-9.21 12.8c-.288.4 1.41.721 3.81.721h164c2.4 0 4.5-.321 4.72-.721l7.05-12.8c.21-.39-1.52-.701-3.88-.701zm181 0c-2.36 0-4.43.311-4.64.701l-6.91 12.8c-.22.4 1.54.721 3.93.721h77.8c2.39 0 4.47-.321 4.65-.721l5.83-12.8c.18-.39-1.58-.701-3.95-.701zm96 0c-2.36 0-4.4.311-4.57.701l-5.69 12.8c-.18.4 1.6.721 4 .721h77.8c2.39 0 4.44-.321 4.58-.721l4.61-12.8c.14-.39-1.65-.701-4.01-.701zm96 0c-2.37 0-4.38.311-4.51.701l-4.47 12.8c-.14.4 1.67.721 4.07.721h77.9c2.39 0 4.41-.321 4.51-.721l3.39-12.8c.1-.39-1.72-.701-4.08-.701zm96 0c-2.36 0-4.34.311-4.44.701l-3.25 12.8c-.11.4 1.74.721 4.14.721h77.8c2.4 0 4.38-.321 4.45-.721l2.17-12.8c.06-.39-1.79-.701-4.15-.701zm95.9 0c-2.36 0-4.31.311-4.37.701l-2.04 12.8c-.06.4 1.82.721 4.21.721h77.8c2.4 0 4.35-.321 4.38-.721l.951-12.8c.03-.39-1.85-.701-4.21-.701zm96 0c-2.37 0-4.29.311-4.31.701l-.82 12.8c-.02.4 1.89.721 4.28.721h77.9c2.4 0 4.32-.321 4.31-.721l-.27-12.8c-.01-.39-1.92-.701-4.28-.701zm95.9 0c-2.36 0-4.26.311-4.24.701l.4 12.8c.02.4 1.95.721 4.35.721h77.8c2.39 0 4.28-.321 4.24-.721l-1.49-12.8c-.05-.39-1.99-.701-4.35-.701zm95.9 0c-2.36 0-4.22.311-4.17.701l1.62 12.8c.05.4 2.02.721 4.42.721h77.8c2.39 0 4.25-.321 4.17-.721l-2.71-12.8c-.08-.39-2.05-.701-4.42-.701zm96 0c-2.36 0-4.19.311-4.1.701l2.84 12.8c.09.4 2.09.721 4.49.721h77.8c2.4 0 4.23-.321 4.11-.721l-3.93-12.8c-.12-.39-2.12-.701-4.48-.701zm96 0c-2.36 0-4.17.311-4.04.701l4.06 12.8c.13.4 2.16.721 4.55.721h77.8c2.4 0 4.2-.321 4.04-.721l-5.15-12.8c-.16-.39-2.19-.701-4.55-.701zm96 0c-2.36 0-4.13.311-3.97.701l5.28 12.8c.17.4 2.23.721 4.62.721h218c2.39 0 4.12-.321 3.86-.721l-8.13-12.8c-.24-.39-2.35-.701-4.71-.701zm235 0c-2.36 0-4.06.311-3.81.701l8.27 12.8c.25.4 2.39.721 4.79.721h67c2.4 0 4.09-.321 3.81-.721l-9.22-12.8c-.28-.39-2.4-.701-4.77-.701zm-1387 16c-2.4 0-4.56.32-4.85.73l-9.51 13.2c-.296.42 1.43.75 3.86.75h79.1c2.43 0 4.61-.33 4.87-.75l8.39-13.2c.255-.41-1.47-.73-3.87-.73zm97.5 0c-2.4 0-4.53.32-4.79.73l-8.25 13.2c-.257.42 1.5.75 3.93.75h79.1c2.44 0 4.58-.33 4.8-.75l7.13-13.2c.22-.41-1.54-.73-3.94-.73zm97.5 0c-2.4 0-4.51.32-4.72.73l-6.99 13.2c-.22.42 1.56.75 4 .75h79.1c2.44 0 4.54-.33 4.73-.75l5.87-13.2c.18-.41-1.61-.73-4.01-.73zm97.5 0c-2.4 0-4.48.32-4.65.73l-5.74 13.2c-.17.42 1.64.75 4.08.75h79.1c2.43 0 4.51-.33 4.65-.75l4.62-13.2c.14-.41-1.68-.73-4.08-.73zm97.5 0c-2.4 0-4.45.32-4.58.73l-4.48 13.2c-.14.42 1.71.75 4.15.75h530c2.43 0 4.33-.33 4.26-.75l-2.38-13.2c-.07-.41-2.06-.73-4.46-.73zm542 0c-2.4 0-4.27.32-4.19.73l2.52 13.2c.07.42 2.1.75 4.53.75h79.1c2.43 0 4.3-.33 4.19-.75l-3.64-13.2c-.11-.41-2.13-.73-4.53-.73zm97.5 0c-2.4 0-4.24.32-4.12.73l3.77 13.2c.12.42 2.18.75 4.61.75h79.1c2.44 0 4.28-.33 4.12-.75l-4.89-13.2c-.15-.41-2.2-.73-4.6-.73zm97.5 0c-2.4 0-4.21.32-4.05.73l5.03 13.2c.16.42 2.25.75 4.68.75h79.1c2.44 0 4.24-.33 4.05-.75l-6.15-13.2c-.19-.41-2.27-.73-4.67-.73zm184 0c-2.4 0-4.15.32-3.92.73l2.75 4.91c.23.41 2.36.74 4.77.74h67.6c2.41 0 4.15-.33 3.89-.74l-3.12-4.91c-.26-.41-2.39-.73-4.8-.73zm-82.7 8.21c-2.42 0-4.21.33-4.02.74l2.38 4.99c.2.42 2.31.75 4.75.75h68.1c2.43 0 4.21-.33 3.98-.75l-2.75-4.99c-.22-.41-2.35-.74-4.77-.74zm87.3 0c-2.42 0-4.18.33-3.95.74l2.8 4.99c.23.42 2.38.75 4.81.75h68.1c2.43 0 4.18-.33 3.92-.75l-3.17-4.99c-.26-.41-2.42-.74-4.84-.74zm87.3 0c-2.42 0-4.16.33-3.9.74l3.23 4.99c.26.42 2.44.75 4.87.75h68.1c2.44 0 4.16-.33 3.86-.75l-3.6-4.99c-.29-.41-2.47-.74-4.89-.74zm-1043 15.9h745c2.46 0 4.55.342 4.71.762h-754c.16-.42 2.25-.762 4.71-.762z"
     fill="url(#linearGradient8281)"
     filter="url(#filter8271)"
     opacity=".169"
     stroke-linecap="round"
     stroke-linejoin="round"
     stroke-width="3.78"
     style="mix-blend-mode:soft-light;paint-order:stroke fill markers"
     id="path136" />
  <path
     d="m1993 1132c-1.25 3.89-17.6 6.8-40.4 6.8h-1905c-22.8 0-39.2-2.91-40.4-6.8-1.48 4.38 15.7 7.8 40.4 7.8h1905c24.7 0 41.9-3.42 40.4-7.8z"
     fill="url(#linearGradient8333)"
     opacity=".3"
     stroke-linecap="round"
     stroke-linejoin="round"
     stroke-width="3.78"
     style="paint-order:stroke fill markers"
     id="path138" />
  <path
     d="m 200,960 c -22.2,0 -42.5,2.76 -45.5,6.21 l -147,165 c -4.26,4.79 13.5,8.68 39.9,8.68 h 1905 c 26.4,0 44.2,-3.89 39.9,-8.68 l -147,-165 c -3.07,-3.45 -23.4,-6.21 -45.5,-6.21 z m 1508,10.1 60.9,82.2 c 1.91,2.58 -1513,4.67 -1513,4.67 -15.3,0 -26,-2.09 -24.1,-4.67 l 60.9,-82.2 c 1.62,-2.18 1413,-2.18 1415,0 z m -1080,92.5 h 745 c 2.46,0 4.55,0.342 4.71,0.762 h -754 c 0.16,-0.42 2.25,-0.762 4.71,-0.762 z"
     fill="url(#linearGradient11027)"
     opacity="0.18"
     stroke-linecap="round"
     stroke-linejoin="round"
     stroke-width="3.78"
     style="mix-blend-mode:soft-light;fill:url(#linearGradient11027);fill-opacity:1;paint-order:stroke fill markers"
     id="path156" />
  <path
     d="m842 1136c-20 0-30 3-30 3h375s-10-3-30-3z"
     fill="#fff"
     opacity=".0818"
     id="path140" />
  <path
     d="m842 1137c-20 0-30 3-30 3s5 10 20 10h335c15 0 20-10 20-10s-10-3-30-3z"
     fill="url(#linearGradient10811)"
     id="path142" />
  <g
     transform="translate(7.5,-20)"
     id="g152">
    <circle
       cx="992"
       cy="42.5"
       r="12.5"
       fill="#131313"
       style="paint-order:stroke fill markers"
       id="circle144" />
    <circle
       cx="992"
       cy="42.5"
       r="9.5"
       fill="#011323"
       style="paint-order:stroke fill markers"
       id="circle146" />
    <circle
       cx="992"
       cy="42.5"
       r="6.5"
       fill="#010a12"
       style="paint-order:stroke fill markers"
       id="circle148" />
    <path
       d="m1e3 42.5c0 4.14-15 4.14-15 0s3.36-7.5 7.5-7.5 7.5 3.36 7.5 7.5z"
       fill="#01335c"
       opacity=".384"
       style="paint-order:stroke fill markers"
       id="path150" />
  </g>
  <circle
     cx="1028"
     cy="22.5"
     r="2.5"
     fill="#01335c"
     opacity=".384"
     style="paint-order:stroke fill markers"
     id="circle154" />
</svg>
