<?xml version="1.0" encoding="UTF-8" standalone="no"?>
<!-- Created with Inkscape (http://www.inkscape.org/) -->

<svg
   width="63.760498mm"
   height="22.48959mm"
   viewBox="0 0 63.760498 22.48959"
   version="1.1"
   id="svg4778"
   inkscape:version="1.1 (c68e22c387, 2021-05-23)"
   sodipodi:docname="silverblue_logo.svg"
   xmlns:inkscape="http://www.inkscape.org/namespaces/inkscape"
   xmlns:sodipodi="http://sodipodi.sourceforge.net/DTD/sodipodi-0.dtd"
   xmlns="http://www.w3.org/2000/svg"
   xmlns:svg="http://www.w3.org/2000/svg">
  <sodipodi:namedview
     id="namedview4780"
     pagecolor="#ffffff"
     bordercolor="#666666"
     borderopacity="1.0"
     inkscape:pageshadow="2"
     inkscape:pageopacity="0.0"
     inkscape:pagecheckerboard="0"
     inkscape:document-units="mm"
     showgrid="false"
     fit-margin-top="0"
     fit-margin-left="0"
     fit-margin-right="0"
     fit-margin-bottom="0"
     inkscape:zoom="0.77771465"
     inkscape:cx="137.5826"
     inkscape:cy="108.65168"
     inkscape:window-width="1280"
     inkscape:window-height="690"
     inkscape:window-x="0"
     inkscape:window-y="0"
     inkscape:window-maximized="0"
     inkscape:current-layer="layer1" />
  <defs
     id="defs4775" />
  <g
     inkscape:label="Layer 1"
     inkscape:groupmode="layer"
     id="layer1"
     transform="translate(35.28231,-119.73459)">
    <g
       transform="translate(-581.55477,44.471937)"
       id="g68005"
       inkscape:export-filename="/home/rlerch/Source/websites/sites/static/images/fedora-silverblue-logo.png"
       inkscape:export-xdpi="96"
       inkscape:export-ydpi="96">
      <rect
         transform="scale(1,-1)"
         y="-79.231407"
         x="546.27246"
         height="3.9687579"
         width="21.227255"
         id="rect67969"
         style="opacity:1;vector-effect:none;fill:none;fill-opacity:1;stroke:none;stroke-width:0.109095;stroke-linecap:butt;stroke-linejoin:miter;stroke-miterlimit:4;stroke-dasharray:none;stroke-dashoffset:0;stroke-opacity:1" />
      <g
         id="g67977"
         transform="matrix(0.15370688,0,0,0.15370688,592.12785,-10.388786)"
         style="fill:#294172;fill-opacity:1;stroke-width:0.904103">
        <g
           id="g67975"
           transform="matrix(1.3078971,0,0,1.3078971,-182.93078,-192.85132)"
           style="fill:#294172;fill-opacity:1;stroke-width:0.691265">
          <text
             xml:space="preserve"
             style="color:#000000;font-style:normal;font-variant:normal;font-weight:normal;font-stretch:normal;font-size:31.8272px;line-height:125%;font-family:Montserrat;-inkscape-font-specification:Montserrat;font-variant-ligatures:normal;font-variant-position:normal;font-variant-caps:normal;font-variant-numeric:normal;font-variant-alternates:normal;font-feature-settings:normal;text-indent:0;text-align:start;text-decoration:none;text-decoration-line:none;text-decoration-style:solid;text-decoration-color:#000000;letter-spacing:0px;word-spacing:0px;text-transform:none;writing-mode:lr-tb;direction:ltr;text-orientation:mixed;dominant-baseline:auto;baseline-shift:baseline;text-anchor:start;white-space:normal;shape-padding:0;clip-rule:nonzero;display:inline;overflow:visible;visibility:visible;opacity:1;isolation:auto;color-interpolation:sRGB;color-interpolation-filters:linearRGB;vector-effect:none;fill:#294172;fill-opacity:1;fill-rule:nonzero;stroke:none;stroke-width:2.09869;stroke-linecap:butt;stroke-linejoin:miter;stroke-miterlimit:4;stroke-dasharray:none;stroke-dashoffset:0;stroke-opacity:1;color-rendering:auto;image-rendering:auto;shape-rendering:auto;text-rendering:auto;enable-background:accumulate"
             x="18.729454"
             y="678.60718"
             id="text67973"><tspan
               sodipodi:role="line"
               id="tspan67971"
               x="18.729454"
               y="678.60718"
               style="color:#000000;font-style:normal;font-variant:normal;font-weight:600;font-stretch:normal;font-size:31.8272px;line-height:125%;font-family:Montserrat;-inkscape-font-specification:'Montserrat Semi-Bold';font-variant-ligatures:normal;font-variant-position:normal;font-variant-caps:normal;font-variant-numeric:normal;font-variant-alternates:normal;font-feature-settings:normal;text-indent:0;text-align:start;text-decoration:none;text-decoration-line:none;text-decoration-style:solid;text-decoration-color:#000000;letter-spacing:0px;word-spacing:0px;text-transform:none;writing-mode:lr-tb;direction:ltr;text-orientation:mixed;dominant-baseline:auto;baseline-shift:baseline;text-anchor:start;white-space:normal;shape-padding:0;clip-rule:nonzero;display:inline;overflow:visible;visibility:visible;isolation:auto;color-interpolation:sRGB;color-interpolation-filters:linearRGB;vector-effect:none;fill:#294172;fill-opacity:1;fill-rule:nonzero;stroke:none;stroke-width:2.09869;stroke-linecap:butt;stroke-linejoin:miter;stroke-miterlimit:4;stroke-dasharray:none;stroke-dashoffset:0;stroke-opacity:1;color-rendering:auto;image-rendering:auto;shape-rendering:auto;text-rendering:auto;enable-background:accumulate">SILVERBLUE</tspan></text>
          <g
             transform="matrix(1.3161203,0,0,1.3161203,207.09671,841.88913)"
             inkscape:label="vectors"
             id="layer2" />
        </g>
      </g>
      <g
         style="fill:#3c6eb4;stroke-width:0.576065"
         transform="matrix(0.31394558,0,0,0.31394558,637.58076,-54.897843)"
         id="g67995">
        <g
           style="fill:#3c6eb4;stroke-width:0.576065"
           id="g67993">
          <path
             style="font-style:normal;font-variant:normal;font-weight:bold;font-stretch:expanded;font-size:11.7281px;line-height:90%;font-family:Comfortaa;-inkscape-font-specification:'Comfortaa Bold Expanded';text-align:start;writing-mode:lr-tb;text-anchor:start;fill:#3c6eb4;fill-opacity:1;stroke:none;stroke-width:1.34388;stroke-miterlimit:4;stroke-dasharray:none"
             id="path67979"
             d="m -183.6627,461.06077 v 0.28832 c 0,0.0193 -0.012,0.031 -0.035,0.0351 v 0 c -0.02,0 -0.032,-0.0123 -0.037,-0.0368 v -0.45718 c 0,-0.0265 0.014,-0.0397 0.034,-0.0397 h 0.01 c 0.02,0 0.033,0.0141 0.04,0.0422 l 0.1642,0.36703 c 0,-0.008 0.038,-0.0922 0.1081,-0.25148 l 0.067,-0.14488 c 0.01,-0.009 0.017,-0.0129 0.026,-0.0129 h 0.01 c 0.02,0 0.031,0.0132 0.034,0.0397 v 0.45718 c 0,0.0246 -0.017,0.0368 -0.037,0.0368 v 0 c -0.023,-0.004 -0.035,-0.0157 -0.035,-0.0351 v -0.28868 c -0.089,0.2008 -0.1351,0.30442 -0.1391,0.31086 -0.01,0.009 -0.019,0.0129 -0.029,0.0129 -0.021,0 -0.038,-0.0212 -0.052,-0.0637 l -0.1159,-0.25971 m -0.4869,-0.21178 h 0.3349 c 0.023,0.004 0.034,0.016 0.034,0.0351 v 0.005 c 0,0.0195 -0.013,0.0308 -0.04,0.0336 h -0.1245 v 0.42605 c 0,0.0193 -0.012,0.031 -0.036,0.0351 v 0 c -0.02,0 -0.032,-0.0123 -0.036,-0.0368 v -0.42427 h -0.1274 c -0.025,-0.005 -0.037,-0.0177 -0.037,-0.0386 0.01,-0.0236 0.016,-0.0354 0.034,-0.0354"
             inkscape:connector-curvature="0" />
          <path
             style="fill:#3c6eb4;fill-opacity:1;stroke-width:1.34388;stroke-miterlimit:4;stroke-dasharray:none"
             id="path67981"
             d="m -211.0887,459.0427 c 0,0 0,0 -4.2146,0 0.068,0.91363 0.8047,1.59573 1.7867,1.59573 0.6956,0 1.2958,-0.28644 1.7731,-0.75007 0.096,-0.0958 0.2047,-0.12305 0.3274,-0.12305 0.1637,0 0.3274,0.082 0.4364,0.21842 0.068,0.0955 0.1092,0.20462 0.1092,0.31359 0,0.15009 -0.068,0.31366 -0.191,0.43653 -0.5729,0.61365 -1.5413,1.02291 -2.4962,1.02291 -1.7321,0 -3.1233,-1.39117 -3.1233,-3.12344 0,-1.7321 1.3503,-3.12332 3.0825,-3.12332 1.7186,0 3.0006,1.33662 3.0006,3.09599 2e-4,0.25929 -0.2317,0.43671 -0.4908,0.43671 z m -2.5098,-2.41426 c -0.9138,0 -1.5412,0.60011 -1.6775,1.47275 2.0594,0 3.3552,0 3.3552,0 -0.1228,-0.83171 -0.7775,-1.47275 -1.6777,-1.47275 z"
             inkscape:connector-curvature="0" />
          <path
             style="fill:#3c6eb4;fill-opacity:1;stroke-width:1.34388;stroke-miterlimit:4;stroke-dasharray:none"
             id="path67983"
             d="m -199.0456,461.75682 c -1.7322,0 -3.1233,-1.39117 -3.1233,-3.12344 0,-1.7321 1.3911,-3.12332 3.1233,-3.12332 1.7323,0 3.1234,1.39122 3.1234,3.12332 1e-4,1.73227 -1.391,3.12344 -3.1234,3.12344 z m 0,-5.06029 c -1.0911,0 -1.8004,0.87306 -1.8004,1.93679 0,1.06372 0.7093,1.93672 1.8004,1.93672 1.0912,0 1.8006,-0.873 1.8006,-1.93672 0,-1.06373 -0.7094,-1.93679 -1.8006,-1.93679 z"
             inkscape:connector-curvature="0" />
          <path
             style="fill:#3c6eb4;fill-opacity:1;stroke-width:1.34388;stroke-miterlimit:4;stroke-dasharray:none"
             id="path67985"
             d="m -191.4124,455.51 c -0.9151,0 -1.5204,0.27068 -2.0548,0.95008 l -0.049,-0.316 v 0 c -0.042,-0.3299 -0.3229,-0.58463 -0.6636,-0.58463 -0.3697,0 -0.6694,0.29933 -0.6694,0.66915 0,5e-4 0,0.001 0,0.002 v 0 6.2e-4 0 4.80321 c 0,0.36826 0.3,0.66837 0.6683,0.66837 0.3683,0 0.6684,-0.30017 0.6684,-0.66837 v -2.57776 c 0,-1.17293 1.0229,-1.75955 2.1004,-1.75955 0.3274,0 0.5864,-0.27278 0.5864,-0.60016 0,-0.32738 -0.259,-0.58644 -0.5864,-0.58644 z"
             inkscape:connector-curvature="0" />
          <path
             style="fill:#3c6eb4;fill-opacity:1;stroke-width:1.34388;stroke-miterlimit:4;stroke-dasharray:none"
             id="path67987"
             d="m -184.3609,458.63332 c 0.014,-1.67755 -1.1867,-3.12332 -3.1235,-3.12332 -1.7322,0 -3.1371,1.39122 -3.1371,3.12332 0,1.73227 1.364,3.12344 3.0144,3.12344 0.8237,0 1.565,-0.42401 1.8958,-0.86695 l 0.1628,0.41333 v 0 c 0.087,0.23221 0.3114,0.39751 0.5741,0.39751 0.3386,0 0.6131,-0.27427 0.6135,-0.61262 v 0 -1.60203 0 z m -3.1235,1.93678 c -1.0912,0 -1.8004,-0.873 -1.8004,-1.93672 0,-1.06373 0.7092,-1.93679 1.8004,-1.93679 1.0912,0 1.8005,0.87306 1.8005,1.93679 0,1.06372 -0.7093,1.93672 -1.8005,1.93672 z"
             inkscape:connector-curvature="0" />
          <path
             style="fill:#3c6eb4;fill-opacity:1;stroke-width:1.34388;stroke-miterlimit:4;stroke-dasharray:none"
             id="path67989"
             d="m -203.2416,453.04108 c 0,-0.36814 -0.3,-0.65464 -0.6682,-0.65464 -0.3682,0 -0.6685,0.2865 -0.6685,0.65464 v 3.5191 c -0.3408,-0.62738 -1.0773,-1.05018 -1.9503,-1.05018 -1.7731,0 -2.9597,1.33662 -2.9597,3.12332 0,1.78687 1.2275,3.12344 2.9597,3.12344 0.7726,0 1.4425,-0.31887 1.8438,-0.87318 l 0.1484,0.37635 c 0.092,0.25845 0.3384,0.4433 0.628,0.4433 0.3666,0 0.6669,-0.29843 0.6669,-0.66651 0,-10e-4 0,-0.002 0,-0.003 v 0 -7.99276 h -1e-4 z m -3.1234,7.52902 c -1.0911,0 -1.7867,-0.873 -1.7867,-1.93672 0,-1.06373 0.6956,-1.93679 1.7867,-1.93679 1.0912,0 1.7867,0.83201 1.7867,1.93679 0,1.10454 -0.6955,1.93672 -1.7867,1.93672 z"
             inkscape:connector-curvature="0" />
          <path
             style="fill:#3c6eb4;fill-opacity:1;stroke-width:1.34388;stroke-miterlimit:4;stroke-dasharray:none"
             id="path67991"
             d="m -217.1541,452.42684 c -0.1219,-0.018 -0.2462,-0.0272 -0.3696,-0.0272 -1.3812,0 -2.505,1.12385 -2.505,2.50512 v 0.7825 h -0.8185 c -0.3,0 -0.5456,0.24556 -0.5456,0.54549 0,0.30023 0.2456,0.6028 0.5456,0.6028 h 0.8184 v 4.19837 c 0,0.36826 0.3001,0.66837 0.6683,0.66837 0.3684,0 0.6684,-0.30017 0.6684,-0.66837 v -4.19837 h 0.9049 c 0.3,0 0.5455,-0.30257 0.5455,-0.6028 0,-0.29993 -0.2454,-0.54549 -0.5455,-0.54549 h -0.9045 v -0.7825 c 0,-0.64403 0.524,-1.25474 1.168,-1.25474 0.058,0 0.1164,0.004 0.1738,0.0128 0.3653,0.0541 0.7051,-0.11136 0.7592,-0.47675 0.054,-0.3652 -0.1982,-0.70505 -0.5634,-0.75923 z"
             inkscape:connector-curvature="0" />
        </g>
      </g>
      <g
         transform="matrix(0.08296295,0,0,0.08296295,538.60422,75.13641)"
         style="fill:#294172;fill-opacity:1;stroke-width:0.691265"
         id="g68058">
        <rect
           style="opacity:1;vector-effect:none;fill:#ffffff;fill-opacity:1;stroke:none;stroke-width:5;stroke-linecap:butt;stroke-linejoin:miter;stroke-miterlimit:4;stroke-dasharray:none;stroke-dashoffset:0;stroke-opacity:1;marker:none;paint-order:normal"
           id="rect5099"
           width="222.7383"
           height="221.22266"
           x="92.933594"
           y="51.378906"
           rx="165.74887"
           ry="165.74887" />
        <path
           style="opacity:1;vector-effect:none;fill:#8d9fb4;fill-opacity:1;stroke:none;stroke-width:10.0455;stroke-linecap:round;stroke-linejoin:miter;stroke-miterlimit:4;stroke-dasharray:none;stroke-dashoffset:0;stroke-opacity:0.956863;marker:none;paint-order:normal"
           d="m 144.95703,49.359352 c -29.10048,0 -52.52734,23.640732 -52.52734,53.006868 0,60.55887 0.5039,170.23534 0.5039,170.23534 h 170.21094 c 29.10047,0 52.52735,-23.64074 52.52735,-53.00687 V 49.359352 Z m -1.6543,34.430616 c 8.26529,0 15.07422,6.869137 15.07422,15.209859 0,6.488633 -4.12815,12.070013 -9.84961,14.236203 v 96.26343 l 51.15235,-51.44784 v -44.60469 c -6.01564,-2.0011 -10.41407,-7.74466 -10.41407,-14.447103 2e-5,-8.340721 6.80699,-15.209859 15.07227,-15.209859 8.26528,0 15.07422,6.869137 15.07422,15.209859 0,6.444433 -4.07172,11.995093 -9.73242,14.192853 v 34.80115 l 42.25195,-42.49576 c -0.9396,-1.97734 -1.48242,-4.17639 -1.48242,-6.498243 0,-8.340722 6.80698,-15.209859 15.07226,-15.209859 8.26529,0 15.07422,6.869137 15.07422,15.209859 0,8.340733 -6.80893,15.209863 -15.07422,15.209863 -2.34312,0 -4.56,-0.56805 -6.54687,-1.54917 l -41.99414,42.23757 h 34.92383 c 2.1784,-5.71184 7.68028,-9.8193 14.0664,-9.8193 8.26528,0 15.07227,6.86913 15.07227,15.20986 0,8.34073 -6.80699,15.20986 -15.07227,15.20986 -6.64181,0 -12.33486,-4.43858 -14.31836,-10.50913 h -44.70507 l -51.32032,51.61734 h 96.06836 c 2.01901,-6.00896 7.67739,-10.39087 14.27539,-10.39087 8.26528,0 15.07227,6.86913 15.07227,15.20986 0,8.34073 -6.80699,15.21183 -15.07227,15.21183 -6.42993,0 -11.96225,-4.16583 -14.10937,-9.93953 H 138.52734 V 113.40357 c -5.9546,-2.03694 -10.29687,-7.7455 -10.29687,-14.403743 0,-8.340721 6.80698,-15.209859 15.07226,-15.209859 z m 0,10.091291 c -2.86106,0 -5.07226,2.231775 -5.07226,5.118568 0,2.886803 2.2112,5.118573 5.07226,5.118573 2.86107,0 5.07422,-2.23177 5.07422,-5.118573 0,-2.886792 -2.21315,-5.118568 -5.07422,-5.118568 z m 61.03516,0 c -2.86107,0 -5.07227,2.231775 -5.07227,5.118568 10e-6,2.886803 2.2112,5.118573 5.07227,5.118573 2.86107,0 5.07422,-2.23177 5.07422,-5.118573 0,-2.886792 -2.21315,-5.118568 -5.07422,-5.118568 z m 61.18359,0 c -2.86106,0 -5.07226,2.231775 -5.07226,5.118568 0,2.886803 2.2112,5.118573 5.07226,5.118573 2.86107,0 5.07422,-2.23177 5.07422,-5.118573 0,-2.886792 -2.21315,-5.118568 -5.07422,-5.118568 z m 0.44922,61.288821 c -2.86107,0 -5.07422,2.23177 -5.07422,5.11857 0,2.8868 2.21315,5.11857 5.07422,5.11857 2.86107,0 5.07227,-2.23177 5.07227,-5.11857 0,-2.8868 -2.2112,-5.11857 -5.07227,-5.11857 z m 0,61.13706 c -2.86107,0 -5.07422,2.23177 -5.07422,5.11857 0,2.8868 2.21315,5.12054 5.07422,5.12054 2.86107,0 5.07227,-2.23374 5.07227,-5.12054 0,-2.8868 -2.2112,-5.11857 -5.07227,-5.11857 z"
           id="path3225"
           inkscape:connector-curvature="0" />
        <path
           style="opacity:1;fill:#436795;fill-opacity:1;stroke:none;stroke-width:1.00455px;stroke-linecap:butt;stroke-linejoin:miter;stroke-opacity:1"
           d="m 315.67188,49.359352 -39.1836,39.273253 c 2.53501,2.726481 4.10742,6.373112 4.10742,10.367222 0,8.340733 -6.80893,15.209863 -15.07422,15.209863 -2.34312,0 -4.56,-0.56805 -6.54687,-1.54917 l -41.99414,42.23757 h 34.92383 c 2.1784,-5.71184 7.68028,-9.8193 14.0664,-9.8193 8.26528,0 15.07227,6.86913 15.07227,15.20986 0,8.34073 -6.80699,15.20986 -15.07227,15.20986 -6.64181,0 -12.33486,-4.43858 -14.31836,-10.50913 h -44.70507 l -51.32032,51.61734 h 96.06836 c 2.01901,-6.00896 7.67739,-10.39087 14.27539,-10.39087 8.26528,0 15.07227,6.86913 15.07227,15.20986 0,8.34073 -6.80699,15.21183 -15.07227,15.21183 -6.42993,0 -11.96225,-4.16583 -14.10937,-9.93953 H 138.73438 l -45.80079,45.90355 h 170.21094 c 29.10047,0 52.52734,-23.64074 52.52735,-53.00687 z m -46.25,46.354895 -7.18165,7.197933 c 0.87831,0.74533 2.00772,1.20622 3.28125,1.20622 2.86107,0 5.07422,-2.23177 5.07422,-5.118573 0,-1.272315 -0.44802,-2.402728 -1.17382,-3.28558 z m -3.45118,59.455833 c -2.86107,0 -5.07422,2.23177 -5.07422,5.11857 0,2.8868 2.21315,5.11857 5.07422,5.11857 2.86107,0 5.07227,-2.23177 5.07227,-5.11857 0,-2.8868 -2.2112,-5.11857 -5.07227,-5.11857 z m 0,61.13706 c -2.86107,0 -5.07422,2.23177 -5.07422,5.11857 0,2.8868 2.21315,5.12054 5.07422,5.12054 2.86107,0 5.07227,-2.23374 5.07227,-5.12054 0,-2.8868 -2.2112,-5.11857 -5.07227,-5.11857 z"
           id="path3227"
           inkscape:connector-curvature="0" />
      </g>
    </g>
  </g>
</svg>
